<?xml version="1.0" encoding="utf-8"?>
<!-- Generator: Adobe Illustrator 22.0.0, SVG Export Plug-In . SVG Version: 6.00 Build 0)  -->
<svg version="1.1" id="Layer_1" xmlns="http://www.w3.org/2000/svg" xmlns:xlink="http://www.w3.org/1999/xlink" x="0px" y="0px"
	 viewBox="0 0 279 40" style="enable-background:new 0 0 279 40;" xml:space="preserve">
<style type="text/css">
	.st0{enable-background:new    ;}
	.st1{fill:#165416;}
	.st2{filter:url(#Adobe_OpacityMaskFilter);}
	.st3{fill:#FFFFFF;}
	.st4{mask:url(#mask-2_1_);fill:#165416;}
	.st5{filter:url(#Adobe_OpacityMaskFilter_1_);}
	.st6{mask:url(#mask-2_2_);fill:#165416;}
	.st7{fill:#4BAE47;}
</style>
<title>Group 5</title>
<desc>Created with Sketch.</desc>
<g id="innit-partners" transform="translate(-421.000000, -1208.000000)">
	<g id="partner-with-innit" transform="translate(0.000000, 1085.000000)">
		<g id="Group-5" transform="translate(420.000000, 123.000000)">
			<g class="st0">
				<path class="st1" d="M9.3,11.9c6,0,9.2,2.8,9.2,8.4c0,5.9-3.3,8.6-8.5,8.6H7.2V39H1.9V11.9H9.3z M7.2,24.5h1.2
					c3.8,0,4.8-1.4,4.8-4.2c0-2.3-0.8-4-4.7-4H7.2V24.5z"/>
				<path class="st1" d="M31.8,21.3h5V39h-5v-1.6h-0.1c-1.1,1.4-3,2.2-4.8,2.2c-4.8,0-8.1-4.2-8.1-9.5c0-5,3.2-9.3,8.1-9.3
					c1.8,0,3.7,0.8,4.9,2.2V21.3z M32.3,30.1c0-2.6-1.7-4.9-4.2-4.9c-2.4,0-4.1,2.4-4.1,4.9c0,2.6,1.8,5,4.2,5S32.3,32.8,32.3,30.1z
					"/>
				<path class="st1" d="M51.4,25.9c-0.6-0.4-1.3-0.6-2.1-0.6c-2.6,0-3.9,1.6-3.9,5.7V39h-5V21.3h5v1.8h0.1c1-1.5,2.5-2.4,4.4-2.4
					c0.7,0,1.4,0.2,2.1,0.4L51.4,25.9z"/>
				<path class="st1" d="M60,15.4v6h3.1v4.2H60V39h-5V25.6h-1.7v-4.2H55v-6H60z"/>
				<path class="st1" d="M80.1,39h-5V28.8c0-3.5-1.4-4-2.7-4c-1.9,0-3,1.2-3,5.1V39h-5V21.3h5v1.6h0.1c1-1.6,2.8-2.2,4.6-2.2
					c4.1,0,6.1,2.6,6.1,7.3V39z"/>
				<path class="st1" d="M87.7,31c0,3,1.3,4.8,3.5,4.8c1.7,0,2.7-1,3.4-2.4l4.6,0.8c-1.3,3.6-4.3,5.5-8,5.5c-5.4,0-8.8-3.9-8.8-9.3
					c0-5.6,3.1-9.6,8.6-9.6c5.3,0,8.4,3.5,8.4,9.8V31H87.7z M94.6,27.8c-0.3-2.2-1.7-3.6-3.4-3.6c-1.6,0-3,1.2-3.3,3.6H94.6z"/>
				<path class="st1" d="M112.7,25.9c-0.6-0.4-1.3-0.6-2.1-0.6c-2.6,0-3.9,1.6-3.9,5.7V39h-5V21.3h5v1.8h0.1c1-1.5,2.5-2.4,4.4-2.4
					c0.7,0,1.4,0.2,2.1,0.4L112.7,25.9z"/>
			</g>
			<g id="With_innit_logo-rgb" transform="translate(123.000000, 0.000000)">
				<path id="Fill-1" class="st1" d="M44.5,25.3V34c0,0.5,0.4,0.9,0.9,0.9H49v4h-6.4c-1.2,0-2.2-1-2.2-2.3V25.3H37v-4h3.4V16h4.2
					v5.3H49v4H44.5"/>
				<polyline id="Fill-2" class="st1" points="33,22 33,35.1 37,35.1 37,39 25,39 25,35.1 29,35.1 29,25.9 25.5,25.9 25.5,22 33,22 
									"/>
				<g id="Group-6" transform="translate(0.000000, 16.000000)">
					<g id="Clip-4">
					</g>
					<defs>
						<filter id="Adobe_OpacityMaskFilter" filterUnits="userSpaceOnUse" x="52.1" y="0" width="15.8" height="23">
							<feColorMatrix  type="matrix" values="1 0 0 0 0  0 1 0 0 0  0 0 1 0 0  0 0 0 1 0"/>
						</filter>
					</defs>
					<mask maskUnits="userSpaceOnUse" x="52.1" y="0" width="15.8" height="23" id="mask-2_1_">
						<g class="st2">
							<polygon id="path-1_1_" class="st3" points="0,0 0,23 34,23 67.9,23 67.9,0 							"/>
						</g>
					</mask>
					<path id="Fill-3" class="st4" d="M60.2,8.8c-2.5,0-3.5,2.1-3.5,5.1V23h-4.6V0h4.5V8h0.2c0.2-0.6,1.7-3.1,5.3-3.1
						c3.2,0,5.8,2.4,5.8,6.4V23h-4.5V12.5C63.4,9.3,61.5,8.8,60.2,8.8"/>
					<defs>
						<filter id="Adobe_OpacityMaskFilter_1_" filterUnits="userSpaceOnUse" x="0" y="5.3" width="23.4" height="17.6">
							<feColorMatrix  type="matrix" values="1 0 0 0 0  0 1 0 0 0  0 0 1 0 0  0 0 0 1 0"/>
						</filter>
					</defs>
					<mask maskUnits="userSpaceOnUse" x="0" y="5.3" width="23.4" height="17.6" id="mask-2_2_">
						<g class="st5">
							<polygon id="path-1_2_" class="st3" points="0,0 0,23 34,23 67.9,23 67.9,0 							"/>
						</g>
					</mask>
					<polyline id="Fill-5" class="st6" points="19.1,5.3 16.7,15.9 13.5,5.5 9.9,5.5 6.7,15.9 4.3,5.3 0,5.3 4.4,22.9 8.4,22.9 
						11.7,12.4 15,22.9 19,22.9 23.4,5.3 19.1,5.3 					"/>
				</g>
				<path id="Fill-7" class="st7" d="M93,8.5c0,4.7-3.8,8.5-8.5,8.5c-4.7,0-8.5-3.8-8.5-8.5C76,3.9,79.8,0,84.5,0
					C89.2,0,93,3.9,93,8.5"/>
				<path id="Fill-8" class="st7" d="M152.5,25.3V34c0,0.5,0.4,0.9,0.9,0.9h3.6v4h-6.4c-1.2,0-2.2-1-2.2-2.3V25.3H145v-4h3.4V16h4.2
					v5.3h4.5v4H152.5"/>
				<polyline id="Fill-9" class="st7" points="87,22 87,35.1 91,35.1 91,39 79,39 79,35.1 83,35.1 83,25.9 79.5,25.9 79.5,22 87,22 
									"/>
				<polyline id="Fill-10" class="st7" points="141,22 141,35.1 145,35.1 145,39 133,39 133,35.1 137,35.1 137,25.9 133.5,25.9 
					133.5,22 141,22 				"/>
				<path id="Fill-11" class="st7" d="M103.2,24.9c-2.6,0-3.6,2.1-3.6,5.1v9H95V21.4h4.6v2.6h0.2c0.2-0.5,1.8-3.1,5.4-3.1
					c3.3,0,5.9,2.4,5.9,6.3V39h-4.6V28.5C106.4,25.4,104.5,24.9,103.2,24.9"/>
				<path id="Fill-12" class="st7" d="M122.2,24.9c-2.6,0-3.6,2.1-3.6,5.1v9H114V21.4h4.6v2.6h0.2c0.2-0.5,1.8-3.1,5.4-3.1
					c3.3,0,5.9,2.4,5.9,6.3V39h-4.6V28.5C125.4,25.4,123.5,24.9,122.2,24.9"/>
			</g>
		</g>
	</g>
</g>
</svg>
