<?xml version="1.0" encoding="utf-8"?>
<!-- Generator: Adobe Illustrator 22.0.0, SVG Export Plug-In . SVG Version: 6.00 Build 0)  -->
<svg version="1.1" id="Layer_1" xmlns="http://www.w3.org/2000/svg" xmlns:xlink="http://www.w3.org/1999/xlink" x="0px" y="0px"
	 viewBox="0 0 590 373" style="enable-background:new 0 0 590 373;" xml:space="preserve">
<style type="text/css">
	.st0{fill:#165416;}
	.st1{enable-background:new    ;}
	.st2{fill:#FFFFFF;}
	.st3{fill:#4DB935;}
	.st4{fill:#4B4B4B;}
</style>
<title>disjointed food system</title>
<desc>Created with Sketch.</desc>
<g id="Page-1">
	<g id="innit-partners" transform="translate(-472.000000, -645.000000)">
		<g id="disjointed-food-system" transform="translate(472.000000, 645.000000)">
			<g id="worldwide-food" transform="translate(0.000000, 92.000000)">
				<circle id="Oval" class="st0" cx="99.5" cy="98.5" r="98.5"/>
				<g class="st1">
					<path class="st2" d="M53.2,84.9v2.6h-4.5v3.3h4.3v2.6h-4.3v6.6h-2.9V84.9H53.2z"/>
					<path class="st2" d="M59,100.3c-3,0-5.2-2.2-5.2-5.2c0-3.1,2.1-5.2,5.2-5.2c3.1,0,5.2,2.2,5.2,5.2C64.2,98.2,62,100.3,59,100.3
						z M61.3,95.1c0-1.4-0.9-2.8-2.3-2.8c-1.3,0-2.3,1.3-2.3,2.8c0,1.4,1,2.7,2.3,2.7C60.4,97.8,61.3,96.5,61.3,95.1z"/>
					<path class="st2" d="M70,100.3c-3,0-5.2-2.2-5.2-5.2c0-3.1,2.1-5.2,5.2-5.2c3.1,0,5.2,2.2,5.2,5.2C75.1,98.2,73,100.3,70,100.3
						z M72.3,95.1c0-1.4-0.9-2.8-2.3-2.8c-1.3,0-2.3,1.3-2.3,2.8c0,1.4,1,2.7,2.3,2.7C71.3,97.8,72.3,96.5,72.3,95.1z"/>
					<path class="st2" d="M85.7,83v17h-2.8v-0.9h0c-0.6,0.8-1.6,1.2-2.6,1.2c-2.6,0-4.5-2.3-4.5-5.3c0-2.8,1.8-5.2,4.5-5.2
						c1,0,2.1,0.4,2.7,1.2h0v-8H85.7z M83.2,95.1c0-1.4-1-2.7-2.3-2.7c-1.3,0-2.3,1.3-2.3,2.7c0,1.4,1,2.8,2.3,2.8
						C82.3,97.8,83.2,96.5,83.2,95.1z"/>
					<path class="st2" d="M97.4,84.9c2.9,0,4.4,1.3,4.4,4.1c0,1.1-0.4,2.3-1.3,2.9c1.6,0.3,2.6,1.9,2.6,3.8c0,2.8-1.9,4.3-4.8,4.3
						h-4.7V84.9H97.4z M96.5,91.2h0.4c1.6,0,2.1-0.5,2.1-2c0-1.3-0.6-1.9-2.2-1.9h-0.3V91.2z M96.5,97.6h0.8c1.2,0,1.9-0.2,2.3-0.6
						c0.4-0.4,0.5-0.9,0.5-1.5c0-1-0.4-1.6-1.3-1.9c-0.4-0.1-1-0.2-1.6-0.2h-0.6V97.6z"/>
					<path class="st2" d="M110.7,92.7c-0.3-0.2-0.7-0.4-1.2-0.4c-1.4,0-2.1,0.9-2.1,3.1v4.5h-2.8v-9.8h2.8v1h0
						c0.6-0.9,1.4-1.3,2.4-1.3c0.4,0,0.8,0.1,1.2,0.2L110.7,92.7z"/>
					<path class="st2" d="M118.3,90.2h2.8v9.8h-2.8v-0.9h0c-0.6,0.8-1.6,1.2-2.7,1.2c-2.7,0-4.5-2.3-4.5-5.3c0-2.8,1.8-5.2,4.5-5.2
						c1,0,2.1,0.4,2.7,1.2V90.2z M118.6,95.1c0-1.4-1-2.7-2.4-2.7c-1.3,0-2.3,1.3-2.3,2.7c0,1.4,1,2.8,2.3,2.8
						C117.6,97.8,118.6,96.5,118.6,95.1z"/>
					<path class="st2" d="M131.9,100h-2.8v-5.7c0-2-0.8-2.2-1.5-2.2c-1,0-1.7,0.7-1.7,2.8v5.1h-2.8v-9.8h2.8v0.9h0
						c0.6-0.9,1.5-1.2,2.6-1.2c2.3,0,3.4,1.4,3.4,4.1V100z"/>
					<path class="st2" d="M143.2,83v17h-2.8v-0.9h0c-0.6,0.8-1.6,1.2-2.6,1.2c-2.6,0-4.5-2.3-4.5-5.3c0-2.8,1.8-5.2,4.5-5.2
						c1,0,2.1,0.4,2.7,1.2h0v-8H143.2z M140.7,95.1c0-1.4-1-2.7-2.3-2.7c-1.3,0-2.3,1.3-2.3,2.7c0,1.4,1,2.8,2.3,2.8
						C139.7,97.8,140.7,96.5,140.7,95.1z"/>
					<path class="st2" d="M150.2,92.5c-0.4-0.4-0.9-0.7-1.5-0.7c-0.5,0-0.9,0.4-0.9,0.8c0,0.5,0.5,0.7,1.4,1.1
						c0.5,0.2,0.9,0.3,1.2,0.5c1,0.6,1.5,1.4,1.5,2.6c0,2.1-1.6,3.5-3.8,3.5c-1.3,0-2.6-0.6-3.5-1.6l1.3-1.7
						c0.6,0.6,1.3,1.1,2.1,1.1c0.6,0,1.1-0.4,1.1-1.1c0-0.6-0.5-0.9-1.4-1.3c-0.8-0.3-1.4-0.6-1.8-0.9c-0.5-0.5-0.7-1.1-0.7-1.9
						c0-1.8,1.3-3.2,3.1-3.2c1,0,2.4,0.3,3.2,1L150.2,92.5z"/>
				</g>
			</g>
			<g id="world-kitchen-appliances" transform="translate(405.000000, 122.000000)">
				<circle id="Oval-2-Copy" class="st3" cx="130.5" cy="53.5" r="53.5"/>
				<g class="st1">
					<path class="st2" d="M112.3,34.4v4.5h0l3.3-4.5h2.5l-4,4.9l4.2,5.7h-2.6l-3.4-4.7h0V45h-2.1V34.4H112.3z"/>
					<path class="st2" d="M119.9,36.4c-0.7,0-1.2-0.5-1.2-1.2c0-0.6,0.5-1.2,1.2-1.2s1.2,0.5,1.2,1.2
						C121.1,35.9,120.6,36.4,119.9,36.4z M120.9,38.1V45h-2v-6.9H120.9z"/>
					<path class="st2" d="M124.6,35.8v2.3h1.2v1.7h-1.2V45h-2v-5.2h-0.7v-1.7h0.7v-2.3H124.6z"/>
					<path class="st2" d="M130.9,40.2c-0.4-0.4-0.8-0.7-1.4-0.7c-1.1,0-1.7,1-1.7,2c0,1.1,0.7,2,1.8,2c0.5,0,1-0.3,1.4-0.7v1.9
						c-0.6,0.3-1.1,0.4-1.7,0.4c-2,0-3.5-1.6-3.5-3.6c0-2.1,1.5-3.7,3.6-3.7c0.5,0,1.1,0.1,1.6,0.4V40.2z"/>
					<path class="st2" d="M134.1,33.1v5.6h0c0.4-0.6,1.1-0.8,1.8-0.8c1.6,0,2.4,1,2.4,2.8V45h-2v-4c0-1.4-0.6-1.5-1.1-1.5
						c-0.7,0-1.2,0.4-1.2,2V45h-2V33.1H134.1z"/>
					<path class="st2" d="M141.3,41.9c0,1.2,0.5,1.8,1.4,1.8c0.7,0,1-0.4,1.3-0.9l1.8,0.3c-0.5,1.4-1.7,2.1-3.1,2.1
						c-2.1,0-3.4-1.5-3.4-3.6c0-2.2,1.2-3.7,3.3-3.7c2,0,3.3,1.4,3.3,3.8v0.2H141.3z M143.9,40.7c-0.1-0.9-0.7-1.4-1.3-1.4
						c-0.6,0-1.2,0.4-1.3,1.4H143.9z"/>
					<path class="st2" d="M152.8,45h-2v-4c0-1.4-0.5-1.6-1.1-1.6c-0.7,0-1.2,0.5-1.2,2V45h-2v-6.9h2v0.6h0c0.4-0.6,1.1-0.9,1.8-0.9
						c1.6,0,2.4,1,2.4,2.8V45z"/>
				</g>
				<g class="st1">
					<path class="st2" d="M104,52.2l4,10.8h-2.2l-0.8-2.2h-3.7l-0.9,2.2h-2.2l4.1-10.8H104z M101.9,59.1h2.5l-1.3-3.8h0L101.9,59.1z
						"/>
					<path class="st2" d="M112.4,63.2c-0.7,0-1.4-0.3-1.8-0.9h0v4.3h-2V56.1h2v0.6c0.4-0.5,1.2-0.9,1.9-0.9c1.9,0,3.1,1.7,3.1,3.6
						C115.6,61.5,114.3,63.2,112.4,63.2z M113.6,59.6c0-1-0.7-1.9-1.6-1.9c-0.9,0-1.6,0.9-1.6,1.9c0,1,0.7,1.9,1.6,1.9
						C113,61.5,113.6,60.5,113.6,59.6z"/>
					<path class="st2" d="M120.3,63.2c-0.7,0-1.4-0.3-1.8-0.9h0v4.3h-2V56.1h2v0.6c0.4-0.5,1.2-0.9,1.9-0.9c1.9,0,3.1,1.7,3.1,3.6
						C123.5,61.5,122.2,63.2,120.3,63.2z M121.5,59.6c0-1-0.7-1.9-1.6-1.9c-0.9,0-1.6,0.9-1.6,1.9c0,1,0.7,1.9,1.6,1.9
						C120.9,61.5,121.5,60.5,121.5,59.6z"/>
					<path class="st2" d="M126.4,51.1V63h-2V51.1H126.4z"/>
					<path class="st2" d="M128.9,54.4c-0.7,0-1.2-0.5-1.2-1.2c0-0.6,0.5-1.2,1.2-1.2s1.2,0.5,1.2,1.2
						C130,53.9,129.5,54.4,128.9,54.4z M129.8,56.1V63h-2v-6.9H129.8z"/>
					<path class="st2" d="M135.9,56.1h1.9V63h-1.9v-0.6h0c-0.4,0.5-1.1,0.9-1.9,0.9c-1.9,0-3.2-1.6-3.2-3.7c0-1.9,1.3-3.6,3.1-3.6
						c0.7,0,1.4,0.3,1.9,0.9V56.1z M136.1,59.6c0-1-0.7-1.9-1.7-1.9c-0.9,0-1.6,0.9-1.6,1.9c0,1,0.7,1.9,1.6,1.9
						S136.1,60.6,136.1,59.6z"/>
					<path class="st2" d="M145.4,63h-2v-4c0-1.4-0.5-1.6-1.1-1.6c-0.7,0-1.2,0.5-1.2,2V63h-2v-6.9h2v0.6h0c0.4-0.6,1.1-0.9,1.8-0.9
						c1.6,0,2.4,1,2.4,2.8V63z"/>
					<path class="st2" d="M151.5,58.2c-0.4-0.4-0.8-0.7-1.4-0.7c-1.1,0-1.7,1-1.7,2c0,1.1,0.7,2,1.8,2c0.5,0,1-0.3,1.4-0.7v1.9
						c-0.6,0.3-1.1,0.4-1.7,0.4c-2,0-3.5-1.6-3.5-3.6c0-2.1,1.5-3.7,3.6-3.7c0.5,0,1.1,0.1,1.6,0.4V58.2z"/>
					<path class="st2" d="M154.1,59.9c0,1.2,0.5,1.8,1.4,1.8c0.7,0,1-0.4,1.3-0.9l1.8,0.3c-0.5,1.4-1.7,2.1-3.1,2.1
						c-2.1,0-3.4-1.5-3.4-3.6c0-2.2,1.2-3.7,3.3-3.7c2,0,3.3,1.4,3.3,3.8v0.2H154.1z M156.8,58.7c-0.1-0.9-0.7-1.4-1.3-1.4
						c-0.6,0-1.2,0.4-1.3,1.4H156.8z"/>
					<path class="st2" d="M163.1,57.7c-0.3-0.3-0.6-0.5-1-0.5c-0.3,0-0.6,0.3-0.6,0.6c0,0.3,0.3,0.5,1,0.8c0.3,0.1,0.6,0.2,0.8,0.4
						c0.7,0.4,1,1,1,1.8c0,1.5-1.1,2.4-2.7,2.4c-0.9,0-1.8-0.4-2.4-1.1l0.9-1.2c0.4,0.4,0.9,0.8,1.5,0.8c0.4,0,0.8-0.3,0.8-0.7
						c0-0.4-0.3-0.6-1-0.9c-0.5-0.2-1-0.4-1.2-0.7c-0.4-0.3-0.5-0.8-0.5-1.3c0-1.3,0.9-2.2,2.2-2.2c0.7,0,1.7,0.2,2.2,0.7
						L163.1,57.7z"/>
				</g>
			</g>
			<g id="food-packaging-worldwide" transform="translate(369.000000, 0.000000)">
				<circle id="Oval-2" class="st3" cx="79" cy="63" r="62"/>
				<g class="st1">
					<path class="st2" d="M69,38.9v2h-3.6v2.7h3.4v2h-3.4V51H63V38.9H69z"/>
					<path class="st2" d="M73.7,51.3c-2.4,0-4.1-1.7-4.1-4.2c0-2.5,1.7-4.2,4.1-4.2c2.5,0,4.1,1.8,4.1,4.2
						C77.8,49.5,76.1,51.3,73.7,51.3z M75.5,47.1c0-1.1-0.7-2.2-1.9-2.2c-1.1,0-1.8,1-1.8,2.2c0,1.1,0.8,2.2,1.9,2.2
						C74.8,49.3,75.5,48.2,75.5,47.1z"/>
					<path class="st2" d="M82.4,51.3c-2.4,0-4.1-1.7-4.1-4.2c0-2.5,1.7-4.2,4.1-4.2c2.5,0,4.1,1.8,4.1,4.2
						C86.6,49.5,84.9,51.3,82.4,51.3z M84.3,47.1c0-1.1-0.7-2.2-1.9-2.2c-1.1,0-1.8,1-1.8,2.2c0,1.1,0.8,2.2,1.9,2.2
						C83.5,49.3,84.3,48.2,84.3,47.1z"/>
					<path class="st2" d="M95.1,37.4V51h-2.2v-0.7h0c-0.5,0.6-1.3,1-2.1,1c-2.1,0-3.6-1.9-3.6-4.2c0-2.3,1.5-4.1,3.6-4.1
						c0.8,0,1.6,0.4,2.1,1h0v-6.4H95.1z M93,47.1c0-1.1-0.8-2.2-1.9-2.2c-1.1,0-1.8,1.1-1.8,2.2c0,1.2,0.8,2.2,1.9,2.2
						C92.3,49.3,93,48.2,93,47.1z"/>
				</g>
				<g class="st1">
					<path class="st2" d="M47.2,58.9c2.7,0,4.1,1.2,4.1,3.7c0,2.6-1.5,3.8-3.8,3.8h-1.2V71h-2.4V58.9H47.2z M46.2,64.5h0.5
						c1.7,0,2.1-0.6,2.1-1.9c0-1-0.3-1.8-2.1-1.8h-0.5V64.5z"/>
					<path class="st2" d="M57.2,63.1h2.2V71h-2.2v-0.7h0c-0.5,0.6-1.3,1-2.1,1c-2.1,0-3.6-1.9-3.6-4.2c0-2.2,1.4-4.1,3.6-4.1
						c0.8,0,1.6,0.4,2.2,1V63.1z M57.4,67.1c0-1.1-0.8-2.2-1.9-2.2c-1.1,0-1.8,1.1-1.8,2.2c0,1.2,0.8,2.2,1.9,2.2
						C56.6,69.3,57.4,68.2,57.4,67.1z"/>
					<path class="st2" d="M66.3,65.5c-0.5-0.5-1-0.8-1.6-0.8c-1.2,0-2,1.1-2,2.3c0,1.3,0.8,2.3,2.1,2.3c0.6,0,1.2-0.3,1.6-0.8v2.2
						c-0.6,0.4-1.2,0.5-1.9,0.5c-2.3,0-4-1.9-4-4.2c0-2.4,1.7-4.2,4.1-4.2c0.6,0,1.3,0.2,1.8,0.5V65.5z"/>
					<path class="st2" d="M70,57.4V66h0l2.4-2.9h2.9L72,66.6l3.6,4.4h-2.9L70,67.7h0V71h-2.2V57.4H70z"/>
					<path class="st2" d="M81.3,63.1h2.2V71h-2.2v-0.7h0c-0.5,0.6-1.3,1-2.1,1c-2.1,0-3.6-1.9-3.6-4.2c0-2.2,1.4-4.1,3.6-4.1
						c0.8,0,1.6,0.4,2.2,1V63.1z M81.5,67.1c0-1.1-0.8-2.2-1.9-2.2c-1.1,0-1.8,1.1-1.8,2.2c0,1.2,0.8,2.2,1.9,2.2
						C80.7,69.3,81.5,68.2,81.5,67.1z"/>
					<path class="st2" d="M90.2,63.9v-0.8h2.2v7.5c0,2.9-1.2,4.6-3.8,4.6c-2,0-3.8-1.2-4-3.3h2.4c0.1,0.8,0.7,1.4,1.6,1.4
						c0.8,0,1.6-0.3,1.6-2.3v-0.8h0c-0.5,0.6-1.3,1-2.1,1c-2.2,0-3.5-1.9-3.5-4.1c0-2.2,1.4-4.2,3.6-4.2
						C88.9,62.9,89.8,63.3,90.2,63.9L90.2,63.9z M90.5,67.1c0-1.2-0.8-2.2-1.9-2.2c-1,0-1.8,1-1.8,2.2c0,1.1,0.8,2.2,1.9,2.2
						C89.8,69.3,90.5,68.2,90.5,67.1z"/>
					<path class="st2" d="M95.3,61.2c-0.8,0-1.3-0.6-1.3-1.3c0-0.7,0.6-1.3,1.3-1.3s1.3,0.6,1.3,1.3C96.6,60.6,96.1,61.2,95.3,61.2z
						 M96.4,63.1V71h-2.2v-7.9H96.4z"/>
					<path class="st2" d="M105.2,71h-2.2v-4.5c0-1.6-0.6-1.8-1.2-1.8c-0.8,0-1.3,0.5-1.3,2.3V71h-2.2v-7.9h2.2v0.7h0
						c0.5-0.7,1.2-1,2-1c1.8,0,2.7,1.2,2.7,3.2V71z"/>
					<path class="st2" d="M111.9,63.9v-0.8h2.2v7.5c0,2.9-1.2,4.6-3.8,4.6c-2,0-3.8-1.2-4-3.3h2.4c0.1,0.8,0.7,1.4,1.6,1.4
						c0.8,0,1.6-0.3,1.6-2.3v-0.8h0c-0.5,0.6-1.3,1-2.1,1c-2.2,0-3.5-1.9-3.5-4.1c0-2.2,1.4-4.2,3.6-4.2
						C110.6,62.9,111.4,63.3,111.9,63.9L111.9,63.9z M112.2,67.1c0-1.2-0.8-2.2-1.9-2.2c-1,0-1.8,1-1.8,2.2c0,1.1,0.8,2.2,1.9,2.2
						C111.4,69.3,112.2,68.2,112.2,67.1z"/>
				</g>
			</g>
			<g id="retail-grocery-worldwide" transform="translate(377.000000, 229.000000)">
				<circle id="Oval-2-Copy-2" class="st3" cx="89" cy="71" r="72"/>
				<g class="st1">
					<path class="st2" d="M74.1,50.9c2.5,0,4,1.2,4,3.6c0,1.6-1,3.1-2.5,3.3L79,63h-2.8l-2.9-4.9h0V63h-2.4V50.9H74.1z M73.2,56.5
						h0.3c1.6,0,2.3-0.6,2.3-1.9c0-1.2-0.6-1.8-2.2-1.8h-0.3V56.5z"/>
					<path class="st2" d="M81.3,59.4c0,1.3,0.6,2.1,1.6,2.1c0.8,0,1.2-0.4,1.5-1.1l2.1,0.3c-0.6,1.6-1.9,2.4-3.6,2.4
						c-2.4,0-3.9-1.7-3.9-4.1c0-2.5,1.4-4.3,3.8-4.3c2.3,0,3.7,1.6,3.7,4.4v0.2H81.3z M84.4,58c-0.1-1-0.8-1.6-1.5-1.6
						c-0.7,0-1.3,0.5-1.5,1.6H84.4z"/>
					<path class="st2" d="M90,52.5v2.7h1.4V57H90v6h-2.2v-6H87v-1.9h0.8v-2.7H90z"/>
					<path class="st2" d="M97.1,55.1h2.2V63h-2.2v-0.7h0c-0.5,0.6-1.3,1-2.1,1c-2.1,0-3.6-1.9-3.6-4.2c0-2.2,1.4-4.1,3.6-4.1
						c0.8,0,1.6,0.4,2.2,1V55.1z M97.4,59.1c0-1.1-0.8-2.2-1.9-2.2c-1.1,0-1.8,1.1-1.8,2.2c0,1.2,0.8,2.2,1.9,2.2
						S97.4,60.2,97.4,59.1z"/>
					<path class="st2" d="M102.2,53.2c-0.8,0-1.3-0.6-1.3-1.3c0-0.7,0.6-1.3,1.3-1.3c0.8,0,1.3,0.6,1.3,1.3
						C103.5,52.6,102.9,53.2,102.2,53.2z M103.3,55.1V63h-2.2v-7.9H103.3z"/>
					<path class="st2" d="M107.2,49.4V63H105V49.4H107.2z"/>
				</g>
				<g class="st1">
					<path class="st2" d="M70,74.6c-0.5-1.1-1.5-1.9-2.8-1.9c-2.1,0-3.4,2.1-3.4,4.3c0,2.2,1.3,4.2,3.4,4.2c1.4,0,2.7-1.1,2.8-2.7
						h-2.6v-1.9h5.2v0.3c0,3.7-2,6.4-5.5,6.4c-3.4,0-5.7-2.8-5.7-6.3c0-3.7,2.5-6.4,5.9-6.4c2.1,0,3.8,1,4.8,2.9L70,74.6z"/>
					<path class="st2" d="M78.6,77.2c-0.3-0.2-0.6-0.3-0.9-0.3c-1.1,0-1.7,0.7-1.7,2.5V83h-2.2v-7.9H76V76h0c0.4-0.7,1.1-1.1,2-1.1
						c0.3,0,0.6,0.1,0.9,0.2L78.6,77.2z"/>
					<path class="st2" d="M83.1,83.3c-2.4,0-4.1-1.7-4.1-4.2c0-2.5,1.7-4.2,4.1-4.2c2.5,0,4.1,1.8,4.1,4.2
						C87.2,81.5,85.5,83.3,83.1,83.3z M85,79.1c0-1.1-0.7-2.2-1.9-2.2c-1.1,0-1.8,1-1.8,2.2c0,1.1,0.8,2.2,1.9,2.2
						C84.2,81.3,85,80.2,85,79.1z"/>
					<path class="st2" d="M93.6,77.5c-0.5-0.5-1-0.8-1.6-0.8c-1.2,0-2,1.1-2,2.3c0,1.3,0.8,2.3,2.1,2.3c0.6,0,1.2-0.3,1.6-0.8v2.2
						c-0.6,0.4-1.2,0.5-1.9,0.5c-2.3,0-4-1.9-4-4.2c0-2.4,1.7-4.2,4.1-4.2c0.6,0,1.3,0.2,1.8,0.5V77.5z"/>
					<path class="st2" d="M96.6,79.4c0,1.3,0.6,2.1,1.6,2.1c0.8,0,1.2-0.4,1.5-1.1l2.1,0.3c-0.6,1.6-1.9,2.4-3.6,2.4
						c-2.4,0-3.9-1.7-3.9-4.1c0-2.5,1.4-4.3,3.8-4.3c2.3,0,3.7,1.6,3.7,4.4v0.2H96.6z M99.7,78c-0.1-1-0.8-1.6-1.5-1.6
						c-0.7,0-1.3,0.5-1.5,1.6H99.7z"/>
					<path class="st2" d="M107.7,77.2c-0.3-0.2-0.6-0.3-0.9-0.3c-1.1,0-1.7,0.7-1.7,2.5V83h-2.2v-7.9h2.2V76h0
						c0.4-0.7,1.1-1.1,2-1.1c0.3,0,0.6,0.1,0.9,0.2L107.7,77.2z"/>
					<path class="st2" d="M110.8,75.1l1.9,4.5l2-4.5h2.5l-5.7,12.1H109l2.6-5.4l-3.3-6.7H110.8z"/>
				</g>
			</g>
			<g id="food-and-mobile-app" transform="translate(208.000000, 233.000000)">
				<circle id="Oval-2-Copy-3" class="st3" cx="71" cy="60" r="12"/>
				<g class="st1">
					<path class="st4" d="M8.7,79.9v2H5.1v2.7h3.4v2H5.1V92H2.7V79.9H8.7z"/>
					<path class="st4" d="M13.3,92.3c-2.4,0-4.1-1.7-4.1-4.2c0-2.5,1.7-4.2,4.1-4.2c2.5,0,4.1,1.8,4.1,4.2
						C17.5,90.5,15.8,92.3,13.3,92.3z M15.2,88.1c0-1.1-0.7-2.2-1.9-2.2c-1.1,0-1.8,1-1.8,2.2c0,1.1,0.8,2.2,1.9,2.2
						C14.4,90.3,15.2,89.2,15.2,88.1z"/>
					<path class="st4" d="M22.1,92.3c-2.4,0-4.1-1.7-4.1-4.2c0-2.5,1.7-4.2,4.1-4.2c2.5,0,4.1,1.8,4.1,4.2
						C26.2,90.5,24.5,92.3,22.1,92.3z M24,88.1c0-1.1-0.7-2.2-1.9-2.2c-1.1,0-1.8,1-1.8,2.2c0,1.1,0.8,2.2,1.9,2.2
						C23.2,90.3,24,89.2,24,88.1z"/>
					<path class="st4" d="M34.7,78.4V92h-2.2v-0.7h0c-0.5,0.6-1.3,1-2.1,1c-2.1,0-3.6-1.9-3.6-4.2c0-2.3,1.5-4.1,3.6-4.1
						c0.8,0,1.6,0.4,2.1,1h0v-6.4H34.7z M32.7,88.1c0-1.1-0.8-2.2-1.9-2.2c-1.1,0-1.8,1.1-1.8,2.2c0,1.2,0.8,2.2,1.9,2.2
						C32,90.3,32.7,89.2,32.7,88.1z"/>
					<path class="st4" d="M46.3,85.5l1.7,2.2l1.2-1.6l1.5,1.4l-1.3,1.7l2.1,2.8h-2.9l-1-1.2c-1,0.9-2.1,1.5-3.5,1.5
						c-2,0-3.5-1.5-3.5-3.5c0-0.7,0.2-1.4,0.6-2c0.4-0.5,0.7-0.8,1.8-1.6c-0.6-0.8-1-1.6-1-2.6c0-1.7,1.3-3,3.1-3
						c1.9,0,3.1,1.3,3.1,3C48.3,83.6,47.8,84.6,46.3,85.5z M46.3,89.2l-1.9-2.5c-0.6,0.4-1.4,1-1.4,1.9c0,0.8,0.7,1.6,1.4,1.6
						C45.2,90.2,45.8,89.6,46.3,89.2z M45.9,83.6c0.3-0.4,0.4-0.7,0.4-1.1c0-0.7-0.4-1.2-1-1.2c-0.6,0-1,0.5-1,1.1
						c0,0.7,0.4,1,0.9,1.7C45.5,83.9,45.7,83.7,45.9,83.6z"/>
					<path class="st4" d="M59.9,79.6l3,8l2.8-8h1.7L69.2,92h-2.4l-1-7.5h0l-2.7,7.7h-0.8l-2.6-7.7h0L58.6,92h-2.4l2-12.4H59.9z"/>
					<path class="st4" d="M73.8,92.3c-2.4,0-4.1-1.7-4.1-4.2c0-2.5,1.7-4.2,4.1-4.2c2.5,0,4.1,1.8,4.1,4.2
						C77.9,90.5,76.2,92.3,73.8,92.3z M75.6,88.1c0-1.1-0.7-2.2-1.9-2.2c-1.1,0-1.8,1-1.8,2.2c0,1.1,0.8,2.2,1.9,2.2
						C74.9,90.3,75.6,89.2,75.6,88.1z"/>
					<path class="st4" d="M81.2,78.4v6.4c0.5-0.6,1.3-1,2.2-1c2.1,0,3.6,2,3.6,4.1c0,2.3-1.5,4.2-3.6,4.2c-0.8,0-1.6-0.4-2.1-1h0V92
						H79V78.4H81.2z M84.7,88.1c0-1.1-0.7-2.2-1.9-2.2c-1.1,0-1.8,1.1-1.8,2.2c0,1.2,0.8,2.2,1.9,2.2C83.9,90.3,84.7,89.2,84.7,88.1
						z"/>
					<path class="st4" d="M89.2,82.2c-0.8,0-1.3-0.6-1.3-1.3c0-0.7,0.6-1.3,1.3-1.3c0.8,0,1.3,0.6,1.3,1.3
						C90.6,81.6,90,82.2,89.2,82.2z M90.3,84.1V92h-2.2v-7.9H90.3z"/>
					<path class="st4" d="M94.3,78.4V92H92V78.4H94.3z"/>
					<path class="st4" d="M97.7,88.4c0,1.3,0.6,2.1,1.6,2.1c0.8,0,1.2-0.4,1.5-1.1l2.1,0.3c-0.6,1.6-1.9,2.4-3.6,2.4
						c-2.4,0-3.9-1.7-3.9-4.1c0-2.5,1.4-4.3,3.8-4.3c2.3,0,3.7,1.6,3.7,4.4v0.2H97.7z M100.7,87c-0.1-1-0.8-1.6-1.5-1.6
						c-0.7,0-1.3,0.5-1.5,1.6H100.7z"/>
					<path class="st4" d="M114.1,79.6l4.6,12.4h-2.5l-0.9-2.5H111l-1,2.5h-2.5l4.7-12.4H114.1z M111.7,87.5h2.9l-1.5-4.4h0
						L111.7,87.5z"/>
					<path class="st4" d="M123.7,92.3c-0.8,0-1.6-0.4-2.1-1h0v4.9h-2.2V84.1h2.2v0.7c0.5-0.6,1.4-1,2.2-1c2.1,0,3.6,2,3.6,4.1
						C127.3,90.3,125.9,92.3,123.7,92.3z M125.1,88.1c0-1.1-0.8-2.2-1.9-2.2c-1.1,0-1.8,1.1-1.8,2.2c0,1.2,0.8,2.2,1.9,2.2
						C124.3,90.3,125.1,89.2,125.1,88.1z"/>
					<path class="st4" d="M132.7,92.3c-0.8,0-1.6-0.4-2.1-1h0v4.9h-2.2V84.1h2.2v0.7c0.5-0.6,1.4-1,2.2-1c2.1,0,3.6,2,3.6,4.1
						C136.4,90.3,134.9,92.3,132.7,92.3z M134.1,88.1c0-1.1-0.8-2.2-1.9-2.2c-1.1,0-1.8,1.1-1.8,2.2c0,1.2,0.8,2.2,1.9,2.2
						C133.3,90.3,134.1,89.2,134.1,88.1z"/>
					<path class="st4" d="M141.4,86c-0.3-0.3-0.7-0.5-1.2-0.5c-0.4,0-0.7,0.3-0.7,0.7c0,0.4,0.4,0.6,1.1,0.9c0.4,0.1,0.7,0.3,1,0.4
						c0.8,0.5,1.2,1.1,1.2,2c0,1.7-1.3,2.8-3.1,2.8c-1.1,0-2.1-0.5-2.8-1.3l1-1.3c0.4,0.5,1,0.9,1.7,0.9c0.5,0,0.9-0.3,0.9-0.8
						c0-0.5-0.4-0.7-1.1-1c-0.6-0.2-1.1-0.4-1.4-0.8c-0.4-0.4-0.6-0.9-0.6-1.5c0-1.5,1-2.5,2.5-2.5c0.8,0,1.9,0.3,2.5,0.8L141.4,86z
						"/>
				</g>
				<g>
					<polygon class="st0" points="36.2,-58.9 36.2,-55 -17.5,-55 -17.5,-49 36.2,-49 36.2,-45.1 61.2,-52 					"/>
					<polygon class="st3" points="210.8,-53 210.8,-56.9 185.8,-50 210.8,-43.1 210.8,-47 289,-47 289,-53 					"/>
					<polygon class="st3" points="175.7,-96.7 173,-99.5 214.2,-140 210,-144.2 168.8,-103.8 166,-106.6 153,-84.2 					"/>
					<polygon class="st3" points="184.1,-0.7 160.3,-11.1 175.4,10.1 177.8,7 211.4,34.2 215.2,29.6 181.6,2.4 					"/>
					<polygon class="st3" points="86.9,9.6 90.4,11.2 73,48.4 78.4,51 95.9,13.8 99.4,15.4 103.8,-10.2 					"/>
				</g>
			</g>
			<g id="logo-color-white" transform="translate(288.000000, 157.000000)">
				<path id="Fill-7" class="st0" d="M44.8,23.5v2.9c0.2-0.3,0.3-0.4,0.4-0.5c1.5-2.3,4.4-3.4,7.1-2.7c2.6,0.7,4.3,2.9,4.5,5.8
					c0.1,1.2,0.1,2.4,0.1,3.6c0,3.1,0,6.2,0,9.3V43c-1.6,0-3,0-4.5,0c-0.1,0-0.3-0.5-0.3-0.7c0-3.3,0-6.6,0-10c0-0.6,0-1.1-0.1-1.7
					c-0.2-1.8-1.1-2.9-2.5-3.2c-1.8-0.4-3.3,0.3-3.9,1.9c-0.4,1.1-0.7,2.3-0.7,3.5c-0.1,3,0,6.1,0,9.1V43c-1.6,0-3.1,0-4.6,0
					c-0.1,0-0.3-0.2-0.3-0.4c-0.1-0.2,0-0.5,0-0.7c0-4.9,0-9.7,0-14.6c0-1.2,0.1-2.5,0.1-3.7c1.2,0,2.4-0.1,3.6-0.1
					C44,23.5,44.4,23.5,44.8,23.5"/>
				<path id="Fill-4" class="st0" d="M19,23.5c0.1,0,0.3-0.1,0.4-0.1c1.4,0,2.8,0,4.4,0v2.7c0.1,0.1,0.2,0.1,0.3,0.2
					c0-0.1,0-0.3,0.1-0.4c1.6-2.5,4.5-3.5,7.2-2.7c2.8,0.8,4.5,3.2,4.6,6.4c0.1,4.2,0,8.4,0,12.6c0,0.3,0,0.7-0.5,0.7
					c-1.4,0-2.8,0-4.3,0c0-0.4-0.1-0.7-0.1-1c0-3.4,0-6.9,0-10.3c0-0.4,0-0.8-0.1-1.2c-0.3-1.9-1.2-2.9-2.8-3.1
					c-1.7-0.2-3.2,0.5-3.8,2.3c-0.4,1.2-0.5,2.4-0.6,3.7c-0.1,3,0,5.9,0,8.9c0,0.6-0.2,0.8-0.8,0.8c-1.3,0-2.7,0-4.1,0V23.5z"/>
				<path id="Fill-9" class="st0" d="M82.2,23.7h4.8v4.3h-4.7c0,0.3-0.1,0.6-0.1,0.8c0,2.7,0,5.5,0,8.2c0,1.2,0.3,1.5,1.4,1.5
					c1.1,0,2.2,0,3.4,0c0,1.4,0,2.7,0,4c0,0.1-0.3,0.4-0.4,0.4c-2.2,0-4.5,0.1-6.7,0c-1.3,0-2.1-1.1-2.2-2.5c0-3.7,0-7.5,0-11.2
					v-1.1H74c0-1.4,0-2.7,0-4c0-0.1,0.4-0.4,0.6-0.4c1,0,2,0,3.1,0c0-1.6,0-3.1,0-4.6c0-1.1,0-1.1,1.1-1.1c0.9,0,1.8,0,2.7,0
					c0.6,0,0.7,0.2,0.7,0.8c0,1.3,0,2.7,0,4V23.7z"/>
				<path id="Fill-11" class="st0" d="M61.6,28.3V24h8.1v1c0,4.3,0,8.6,0,12.9c0,0.6,0.1,0.9,0.8,0.8c1.1-0.1,2.3,0,3.5,0v4.2
					c-0.2,0-0.4,0.1-0.7,0.1c-3.8,0-7.7,0-11.5,0c-0.6,0-0.8-0.1-0.8-0.8c0-1.1,0-2.3,0-3.5h4.3c0-0.3,0.1-0.5,0.1-0.8
					c0-3,0-6,0-8.9c0-0.6-0.2-0.8-0.8-0.8C63.6,28.3,62.6,28.3,61.6,28.3"/>
				<path id="Fill-13" class="st0" d="M7.3,38.7V28.3H3.5c0-1.4,0-2.6,0-3.9c0-0.1,0.3-0.4,0.4-0.4c2.5,0,5,0,7.7,0v14.7H16V43H3
					v-4.3H7.3z"/>
				<path id="Fill-1" class="st3" d="M9.5,19C4.2,19,0,14.8,0,9.5C0,4.3,4.4-0.1,9.6,0C14.8,0.1,19,4.3,19,9.5
					C19,14.8,14.5,19.1,9.5,19"/>
			</g>
		</g>
	</g>
</g>
</svg>
