<?xml version="1.0" encoding="utf-8"?>
<!-- Generator: Adobe Illustrator 21.1.0, SVG Export Plug-In . SVG Version: 6.00 Build 0)  -->
<svg version="1.1" id="Layer_1" xmlns="http://www.w3.org/2000/svg" xmlns:xlink="http://www.w3.org/1999/xlink" x="0px" y="0px"
	 viewBox="0 0 32 32" style="enable-background:new 0 0 32 32;" xml:space="preserve">
<style type="text/css">
	.st0{fill:#4B4B4B;}
</style>
<title>pinterest</title>
<desc>Created with Sketch.</desc>
<path class="st0" d="M9.3,16.4c0-0.4,0-1.1,0-1.2c0.2-1.6,0.9-3,2-4.1C13,9.6,14.9,9,17,9.3c1.6,0.2,2.9,0.9,4,2
	c1.5,1.6,2.1,3.4,1.8,5.6c-0.2,1.6-0.9,2.9-2.1,4c-1,0.9-2.1,1.5-3.4,1.7c-0.2,0-0.5,0.1-0.8,0.1s-0.6,0-0.8,0
	c-0.3,0-0.5-0.1-0.8-0.1s-0.5-0.1-0.8-0.2c0.7-1,1-2.2,1.3-3.4c0.4,0.5,0.9,0.8,1.6,0.8c0.8,0,1.4-0.2,2-0.7
	c1.2-1.1,1.7-2.5,1.4-4.1c-0.2-1.4-1.1-2.4-2.4-3c-1-0.4-1.9-0.4-2.9-0.2c-1.4,0.3-2.4,1.1-2.9,2.5c-0.4,1.1-0.4,2.2,0.3,3.3
	c0.2,0.3,0.5,0.6,0.8,0.8c0.1,0.1,0.2,0,0.2-0.1c0.1-0.2,0.1-0.5,0.2-0.7c0-0.1,0-0.2,0-0.2c-0.4-0.6-0.5-1.2-0.5-1.8
	c0.1-0.9,0.5-1.6,1.2-2.1c0.7-0.5,1.5-0.6,2.3-0.5c1,0.2,1.7,0.7,2.1,1.6c0.2,0.5,0.2,1.1,0.2,1.7c-0.1,0.5-0.2,1-0.5,1.5
	s-0.8,0.9-1.4,1c-0.8,0.1-1.4-0.5-1.2-1.3c0.1-0.5,0.3-0.9,0.4-1.4c0.1-0.3,0.2-0.7,0.1-1c-0.1-0.5-0.4-0.7-0.9-0.7s-0.8,0.3-1,0.7
	c-0.3,0.6-0.3,1.2-0.1,1.9c0,0.1,0,0.1,0,0.2c-0.2,0.8-0.4,1.7-0.6,2.5c-0.2,0.8-0.3,1.6-0.2,2.5c0,0.1,0,0.1,0,0.2
	c-0.1,0-0.1,0-0.1-0.1c-0.9-0.4-1.6-0.9-2.3-1.6c-0.9-1-1.5-2.1-1.7-3.5C9.4,16.9,9.4,16.6,9.3,16.4z"/>
<path class="st0" d="M16.1,0.4C7.5,0.4,0.5,7.4,0.5,16s7,15.6,15.6,15.6s15.6-7,15.6-15.6S24.6,0.4,16.1,0.4z M16.1,29.6
	C8.6,29.6,2.5,23.5,2.5,16S8.6,2.4,16.1,2.4S29.7,8.5,29.7,16S23.6,29.6,16.1,29.6z"/>
</svg>
