<?xml version="1.0" encoding="utf-8"?>
<!-- Generator: Adobe Illustrator 21.1.0, SVG Export Plug-In . SVG Version: 6.00 Build 0)  -->
<svg version="1.1" id="Layer_1" xmlns="http://www.w3.org/2000/svg" xmlns:xlink="http://www.w3.org/1999/xlink" x="0px" y="0px"
	 viewBox="0 0 32 32" style="enable-background:new 0 0 32 32;" xml:space="preserve">
<style type="text/css">
	.st0{fill:#165416;}
</style>
<title>facebook</title>
<desc>Created with Sketch.</desc>
<g id="innit-careers" transform="translate(-865.000000, -3233.000000)">
	<g id="footer" transform="translate(0.000000, 3063.000000)">
		<g id="social" transform="translate(866.000000, 171.000000)">
			<g id="facebook">
				<g id="Fill-1">
					<path class="st0" d="M15.8,23v-7.7h2.6l0.4-3h-3v-1.9c0-0.9,0.2-1.5,1.5-1.5h1.6V6.1c-0.3,0-1.2-0.1-2.4-0.1c-2.3,0-4,1.4-4,4
						v2.2H10v3h2.7V23H15.8z"/>
				</g>
			</g>
		</g>
	</g>
</g>
<path class="st0" d="M16.1,0.4C7.5,0.4,0.5,7.4,0.5,16s7,15.6,15.6,15.6s15.6-7,15.6-15.6S24.6,0.4,16.1,0.4z M16.1,29.6
	C8.6,29.6,2.5,23.5,2.5,16S8.6,2.4,16.1,2.4S29.7,8.5,29.7,16S23.6,29.6,16.1,29.6z"/>
</svg>
