<?xml version="1.0" encoding="utf-8"?>
<!-- Generator: Adobe Illustrator 21.1.0, SVG Export Plug-In . SVG Version: 6.00 Build 0)  -->
<svg version="1.1" id="Layer_1" xmlns="http://www.w3.org/2000/svg" xmlns:xlink="http://www.w3.org/1999/xlink" x="0px" y="0px"
	 viewBox="0 0 32 32" style="enable-background:new 0 0 32 32;" xml:space="preserve">
<style type="text/css">
	.st0{fill:#165416;}
	.st1{fill:#4cb935;}
</style>
<title>instagram</title>
<desc>Created with Sketch.</desc>
<g>
	<path class="st0" d="M15.9,9c-1.8,0-2.1,0-2.8,0s-1.2,0.2-1.6,0.3c-0.4,0.2-0.8,0.4-1.2,0.8c-0.4,0.4-0.6,0.8-0.8,1.2
		s-0.3,1-0.3,1.7s0,1,0,2.9s0,2.1,0,2.9c0,0.7,0.1,1.3,0.3,1.7c0.2,0.5,0.4,0.9,0.8,1.2c0.4,0.4,0.8,0.6,1.2,0.8
		c0.4,0.2,0.9,0.3,1.6,0.3c0.7,0,0.9,0,2.8,0c1.8,0,2.1,0,2.8,0c0.7,0,1.2-0.2,1.6-0.3c0.4-0.2,0.8-0.4,1.2-0.8
		c0.4-0.4,0.6-0.8,0.8-1.2c0.2-0.4,0.3-1,0.3-1.7s0-1,0-2.9s0-2.1,0-2.9c0-0.7-0.1-1.3-0.3-1.7c-0.2-0.5-0.4-0.9-0.8-1.2
		c-0.4-0.4-0.8-0.6-1.2-0.8C19.9,9.1,19.4,9,18.7,9C17.9,9,17.7,9,15.9,9L15.9,9z"/>
	<path class="st1" d="M15.9,12.4c-1.9,0-3.5,1.6-3.5,3.6s1.6,3.6,3.5,3.6s3.5-1.6,3.5-3.6S17.8,12.4,15.9,12.4z M15.9,18.3
		c-1.2,0-2.2-1-2.2-2.3s1-2.3,2.2-2.3s2.2,1,2.2,2.3S17.1,18.3,15.9,18.3z"/>
	<ellipse class="st1" cx="19.5" cy="12.3" rx="0.8" ry="0.8"/>
</g>
<path class="st0" d="M16.1,0.4C7.5,0.4,0.5,7.4,0.5,16s7,15.6,15.6,15.6s15.6-7,15.6-15.6S24.6,0.4,16.1,0.4z M16.1,29.6
	C8.6,29.6,2.5,23.5,2.5,16S8.6,2.4,16.1,2.4S29.7,8.5,29.7,16S23.6,29.6,16.1,29.6z"/>
</svg>
