<?xml version="1.0" encoding="utf-8"?>
<!-- Generator: Adobe Illustrator 21.1.0, SVG Export Plug-In . SVG Version: 6.00 Build 0)  -->
<svg version="1.1" id="Layer_1" xmlns="http://www.w3.org/2000/svg" xmlns:xlink="http://www.w3.org/1999/xlink" x="0px" y="0px"
	 viewBox="0 0 32 32" style="enable-background:new 0 0 32 32;" xml:space="preserve">
<style type="text/css">
	.st0{fill:#165416;}
</style>
<title>linked in</title>
<desc>Created with Sketch.</desc>
<path class="st0" d="M16.1,0.4C7.5,0.4,0.5,7.4,0.5,16s7,15.6,15.6,15.6s15.6-7,15.6-15.6S24.6,0.4,16.1,0.4z M16.1,29.6
	C8.6,29.6,2.5,23.5,2.5,16S8.6,2.4,16.1,2.4S29.7,8.5,29.7,16S23.6,29.6,16.1,29.6z"/>
<g id="Logo__x2014__FIXED">
	<path class="st0" d="M13.7,22.2c5.3,0,8.2-4.4,8.2-8.2c0-0.1,0-0.3,0-0.4c0.6-0.4,1.1-0.9,1.4-1.5c-0.5,0.2-1.1,0.4-1.7,0.5
		c0.6-0.4,1.1-0.9,1.3-1.6c-0.6,0.3-1.2,0.6-1.8,0.7c-0.5-0.6-1.3-0.9-2.1-0.9c-1.6,0-2.9,1.3-2.9,2.9c0,0.2,0,0.5,0.1,0.7
		c-2.4-0.1-4.5-1.3-6-3c-0.2,0.4-0.4,0.9-0.4,1.5c0,1,0.5,1.9,1.3,2.4c-0.5,0-0.9-0.1-1.3-0.4l0,0c0,1.4,1,2.6,2.3,2.8
		c-0.2,0.1-0.5,0.1-0.8,0.1c-0.2,0-0.4,0-0.5-0.1c0.4,1.2,1.4,2,2.7,2c-1,0.8-2.2,1.2-3.6,1.2c-0.2,0-0.5,0-0.7,0
		C10.5,21.8,12,22.2,13.7,22.2"/>
</g>
</svg>
