<?xml version="1.0" encoding="utf-8"?>
<!-- Generator: Adobe Illustrator 21.1.0, SVG Export Plug-In . SVG Version: 6.00 Build 0)  -->
<svg version="1.1" id="Layer_1" xmlns="http://www.w3.org/2000/svg" xmlns:xlink="http://www.w3.org/1999/xlink" x="0px" y="0px"
	 viewBox="0 0 699 345" style="enable-background:new 0 0 699 345;" xml:space="preserve">
<style type="text/css">
	.st0{fill:#FFFFFF;}
</style>
<g>
	<path class="st0" d="M154.9,78.6c0,41.3-33.3,74.6-74.6,74.6c-41.3,0-74.6-33.3-74.6-74.6C5.7,38.2,38.9,4,80.3,4
		C121.6,4,154.9,38.2,154.9,78.6z"/>
	<path class="st0" d="M655,224.3V298c0,4.2,3.4,7.7,7.7,7.7h31.6v34.1h-56.5c-10.6,0-19.2-8.6-19.2-19.2v-96.2h-29.8v-33.8h29.8
		v-44.5H655v44.5h39.3v33.8H655z"/>
	<polygon class="st0" points="97.2,190.5 97.2,305.8 132,305.8 132,339.7 28.5,339.7 28.5,305.8 63.3,305.8 63.3,224.5 32.7,224.5 
		32.7,190.5 	"/>
	<polygon class="st0" points="553.4,190.5 553.4,305.8 588.2,305.8 588.2,339.7 484.7,339.7 484.7,305.8 519.5,305.8 519.5,224.5 
		488.9,224.5 488.9,190.5 	"/>
	<path class="st0" d="M226.3,220c-21.8,0-30.4,18-30.4,43.3v76.4h-39.6V190.5h38.9v22.3h1.4c1.4-4.7,15-25.9,45.8-25.9
		c28,0,50.4,20.6,50.4,53.8v99h-39.2V251C253.5,224.4,237.4,220,226.3,220z"/>
	<path class="st0" d="M393.9,220c-21.8,0-30.4,18-30.4,43.3v76.4H324V190.5h38.9v22.3h1.4c1.4-4.7,15-25.9,45.8-25.9
		c28,0,50.4,20.6,50.4,53.8v99h-39.2V251C421.2,224.4,405.1,220,393.9,220z"/>
</g>
</svg>
