<?xml version="1.0" encoding="utf-8"?>
<!-- Generator: Adobe Illustrator 21.1.0, SVG Export Plug-In . SVG Version: 6.00 Build 0)  -->
<svg version="1.1" id="Layer_1" xmlns="http://www.w3.org/2000/svg" xmlns:xlink="http://www.w3.org/1999/xlink" x="0px" y="0px"
	 viewBox="0 0 32 32" style="enable-background:new 0 0 32 32;" xml:space="preserve">
<style type="text/css">
	.st0{fill:#FFFFFF;}
	.st1{fill:#FEFEFE;}
</style>
<title>facebook</title>
<desc>Created with Sketch.</desc>
<g id="Page-1">
	<g id="innit-careers" transform="translate(-865.000000, -3233.000000)">
		<g id="footer" transform="translate(0.000000, 3063.000000)">
			<g id="social" transform="translate(866.000000, 171.000000)">
				<g id="facebook">
					<g id="Oval-2">
						<path class="st0" d="M15,30.5c-8.5,0-15.5-7-15.5-15.5S6.5-0.5,15-0.5s15.5,7,15.5,15.5S23.5,30.5,15,30.5z M15,0.5
							C7,0.5,0.5,7,0.5,15S7,29.5,15,29.5S29.5,23,29.5,15S23,0.5,15,0.5z"/>
					</g>
					<g id="Fill-1">
						<path class="st1" d="M15.8,23v-7.7h2.6l0.4-3h-3v-1.9c0-0.9,0.2-1.5,1.5-1.5l1.6,0V6.1c-0.3,0-1.2-0.1-2.4-0.1
							c-2.3,0-4,1.4-4,4v2.2H10v3h2.7V23H15.8z"/>
					</g>
				</g>
			</g>
		</g>
	</g>
</g>
</svg>
