<?xml version="1.0" encoding="UTF-8"?>
<svg width="68px" height="33px" viewBox="0 0 68 33" version="1.1" xmlns="http://www.w3.org/2000/svg" xmlns:xlink="http://www.w3.org/1999/xlink">
    <!-- Generator: Sketch 46.2 (44496) - http://www.bohemiancoding.com/sketch -->
    <title>logo</title>
    <desc>Created with Sketch.</desc>
    <defs></defs>
    <g id="Page-1" stroke="none" stroke-width="1" fill="none" fill-rule="evenodd">
        <g id="innit-careers" transform="translate(-116.000000, -3113.000000)">
            <g id="footer" transform="translate(0.000000, 3063.000000)">
                <g id="logo" transform="translate(116.000000, 50.000000)">
                    <path d="M35.1035223,18.1805609 L35.1035223,20.3776913 C35.2899816,20.1651043 35.3791265,20.081887 35.4466459,19.9838435 C36.6420523,18.2434522 38.9372325,17.430887 41.0755081,17.9940391 C43.1176707,18.5316043 44.5033809,20.1830391 44.6747025,22.3529087 C44.7451053,23.2448652 44.7340523,24.1437565 44.7369357,25.0397783 C44.7446247,27.3708217 44.7395788,29.7016261 44.7395788,32.0326696 L44.7395788,32.8234739 C43.5018827,32.8234739 42.3297837,32.8366261 41.1596071,32.7988435 C41.0675788,32.7957348 40.9142784,32.4391913 40.913077,32.246213 C40.896017,29.7559087 40.9041866,27.2656043 40.8991406,24.7753 C40.8981795,24.3575391 40.8861654,23.9381043 40.8455576,23.5227348 C40.7158049,22.2013 40.0124975,21.3650609 38.8634657,21.1390826 C37.4729498,20.8655174 36.2785046,21.3311043 35.7640594,22.5650174 C35.4209357,23.387387 35.2351972,24.3240609 35.2051618,25.217213 C35.1287519,27.4858435 35.1796919,29.7587783 35.1796919,32.0298 L35.1796919,32.8232348 C33.9304622,32.8232348 32.7372184,32.8289739 31.5444551,32.8112783 C31.4608367,32.8100826 31.3344481,32.6474739 31.308017,32.5403435 C31.2659675,32.3708 31.2890346,32.1845174 31.2890346,32.0054087 C31.2885541,28.359387 31.2839887,24.7133652 31.291918,21.0675826 C31.2940806,20.1354522 31.3363703,19.2030826 31.3601583,18.270713 C32.3133597,18.2408217 33.2665611,18.2090174 34.2200028,18.1817565 C34.4763845,18.1743435 34.7330064,18.1805609 35.1035223,18.1805609" id="Fill-7" fill="#D0CFCF"></path>
                    <path d="M14.8050177,18.2249196 C14.9177102,18.209137 15.0131025,18.1845065 15.1084947,18.1842674 C16.2274912,18.1813978 17.3469682,18.1825935 18.5541484,18.1825935 L18.5541484,20.2010935 C18.6276749,20.2446152 18.7012014,20.288137 18.7747279,20.3318978 C18.8035618,20.238637 18.8110106,20.13055 18.8645936,20.0542674 C20.1541908,18.2124848 22.4039576,17.4073326 24.5669823,18.00755 C26.7475477,18.6127891 28.1380636,20.4007674 28.1709823,22.8040283 C28.2144735,25.9705935 28.1827562,29.1378761 28.1827562,32.3046804 C28.1827562,32.5653326 28.2187986,32.8369848 27.810318,32.833637 C26.6930035,32.8240717 25.5752085,32.8302891 24.3920565,32.8302891 C24.3761979,32.558637 24.3514488,32.3293109 24.3512085,32.0999848 C24.3485654,29.5109196 24.3512085,26.9216152 24.3468834,24.3323109 C24.3464028,24.0345935 24.3319859,23.7342457 24.2896961,23.4398761 C24.0859364,22.020637 23.3689329,21.2747891 22.0579505,21.0990283 C20.7032367,20.9172891 19.5320989,21.5043543 19.0947845,22.7927891 C18.7999576,23.6608326 18.6709258,24.6163978 18.6452155,25.5375283 C18.5832226,27.7667022 18.6144594,29.9987457 18.6334417,32.2293543 C18.6372862,32.6880065 18.5123392,32.8585065 18.0267279,32.842963 C16.9702049,32.8082891 15.9117597,32.8322022 14.8050177,32.8322022 L14.8050177,18.2249196 Z" id="Fill-4" fill="#D0CFCF"></path>
                    <path d="M63.9498671,18.181613 L67.7581074,18.181613 L67.7581074,21.4840043 L63.9955208,21.4840043 C63.9774996,21.7355696 63.95227,21.927113 63.9520297,22.1184174 C63.9491463,24.2091348 63.9467435,26.2993739 63.9520297,28.3898522 C63.9541922,29.2729609 64.2024042,29.5104174 65.1037046,29.5137652 C65.9792947,29.5173522 66.8553654,29.5144826 67.8018389,29.5144826 C67.8018389,30.5652217 67.812171,31.5554609 67.7859802,32.5452217 C67.7833371,32.6432652 67.5589131,32.8173522 67.4361286,32.8183087 C65.6558742,32.8333739 63.8741781,32.866613 62.0956057,32.8065913 C61.0419661,32.7709609 60.3799873,31.9684391 60.376383,30.8789609 C60.3672523,28.032113 60.3730191,25.1852652 60.3727788,22.3379391 L60.3727788,21.5064826 L57.4300367,21.5064826 C57.4300367,20.447613 57.4163406,19.4580913 57.4511816,18.4707217 C57.4550261,18.3688522 57.7484113,18.2002652 57.9125244,18.194287 C58.7056975,18.165113 59.5000721,18.1811348 60.3727788,18.1811348 C60.3727788,16.9529609 60.3722982,15.8032217 60.3730191,14.6534826 C60.3734996,13.8215478 60.3742205,13.8210696 61.2209767,13.8205913 C61.9411039,13.820113 62.6624325,13.8440261 63.381118,13.8124609 C63.8393371,13.7923739 63.9671675,13.9688522 63.9570756,14.4019174 C63.9330473,15.4165478 63.9496269,16.4323739 63.9498671,17.4477217 L63.9498671,18.181613 Z" id="Fill-9" fill="#D0CFCF"></path>
                    <path d="M47.5944735,21.501987 L47.5944735,18.2194435 L53.9158304,18.2194435 L53.9158304,18.9514217 C53.9160707,22.259313 53.9244806,25.5672043 53.9066996,28.8748565 C53.9040565,29.3547913 54.0181908,29.5482478 54.5367208,29.5255304 C55.434417,29.4858348 56.3349965,29.5145304 57.2918021,29.5145304 L57.2918021,32.7848783 C57.1214417,32.8006609 56.9506007,32.8300739 56.7797597,32.8300739 C53.7762261,32.8329435 50.7729329,32.8238565 47.7696396,32.8410739 C47.3116608,32.8439435 47.1230389,32.731313 47.1413004,32.2451609 C47.1742191,31.3711391 47.1504311,30.4954435 47.1504311,29.5449 L50.5182332,29.5449 C50.5437032,29.3057696 50.5773428,29.1362261 50.5778233,28.9666826 C50.5814276,26.6750957 50.5672509,24.3835087 50.5907986,22.0921609 C50.595364,21.6110304 50.4408622,21.4723348 49.9737527,21.4926609 C49.1986007,21.5266174 48.4205654,21.501987 47.5944735,21.501987" id="Fill-11" fill="#D0CFCF"></path>
                    <path d="M5.5363053,29.525937 L5.5363053,21.5028717 L2.55223463,21.5028717 C2.55223463,20.4569152 2.54190247,19.4673935 2.567853,18.47835 C2.57025583,18.3769587 2.78915336,18.1966543 2.90905442,18.1954587 C4.86687774,18.1775239 6.82470106,18.1827848 8.87094841,18.1827848 L8.87094841,29.4934152 L12.3081922,29.4934152 L12.3081922,32.7974804 L2.18508269,32.7974804 L2.18508269,29.525937 L5.5363053,29.525937 Z" id="Fill-13" fill="#D0CFCF"></path>
                    <path d="M7.21254134,14.4088761 C3.17098657,14.4052891 0.0338558304,11.2289196 0.000216254417,7.18785435 C-0.0324621908,3.24507174 3.34495124,-0.0843413043 7.31826572,0.00150652174 C11.2954247,0.0875934783 14.4770078,3.2486587 14.483976,7.23209348 C14.4909442,11.2394413 11.0808523,14.505963 7.21254134,14.4088761" id="Fill-1" fill="#4DB935"></path>
                </g>
            </g>
        </g>
    </g>
</svg>