<?xml version="1.0" encoding="utf-8"?>
<!-- Generator: Adobe Illustrator 21.1.0, SVG Export Plug-In . SVG Version: 6.00 Build 0)  -->
<svg version="1.1" id="Layer_1" xmlns="http://www.w3.org/2000/svg" xmlns:xlink="http://www.w3.org/1999/xlink" x="0px" y="0px"
	 viewBox="0 0 32 32" style="enable-background:new 0 0 32 32;" xml:space="preserve">
<style type="text/css">
	.st0{fill:#FFFFFF;}
</style>
<title>instagram</title>
<desc>Created with Sketch.</desc>
<g id="Page-1">
	<g id="innit-careers" transform="translate(-945.000000, -3233.000000)">
		<g id="footer" transform="translate(0.000000, 3063.000000)">
			<g id="social" transform="translate(866.000000, 171.000000)">
				<g id="instagram" transform="translate(80.000000, 0.000000)">
					<g id="Oval-2-Copy">
						<path class="st0" d="M14.9,30.4c-8.5,0-15.5-7-15.5-15.5s7-15.5,15.5-15.5s15.5,7,15.5,15.5S23.4,30.4,14.9,30.4z M14.9,0.4
							c-8,0-14.5,6.5-14.5,14.5s6.5,14.5,14.5,14.5s14.5-6.5,14.5-14.5S22.9,0.4,14.9,0.4z"/>
					</g>
				</g>
			</g>
		</g>
	</g>
</g>
<g>
	<path class="st0" d="M15.9,10.3c1.8,0,2,0,2.7,0c0.7,0,1,0.1,1.3,0.2c0.3,0.1,0.5,0.3,0.8,0.5c0.2,0.2,0.4,0.5,0.5,0.8
		c0.1,0.2,0.2,0.6,0.2,1.3c0,0.7,0,1,0,2.8s0,2.1,0,2.8c0,0.7-0.1,1.1-0.2,1.3c-0.1,0.3-0.3,0.6-0.5,0.8c-0.2,0.2-0.5,0.4-0.8,0.5
		c-0.2,0.1-0.6,0.2-1.3,0.2c-0.7,0-0.9,0-2.7,0s-2,0-2.7,0c-0.7,0-1-0.1-1.3-0.2c-0.3-0.1-0.5-0.3-0.8-0.5c-0.2-0.2-0.4-0.5-0.5-0.8
		c-0.1-0.2-0.2-0.6-0.2-1.3c0-0.7,0-1,0-2.8s0-2.1,0-2.8c0-0.7,0.1-1.1,0.2-1.3c0.1-0.3,0.3-0.6,0.5-0.8c0.2-0.2,0.5-0.4,0.8-0.5
		c0.2-0.1,0.6-0.2,1.3-0.2C13.9,10.3,14.1,10.3,15.9,10.3 M15.9,9c-1.8,0-2.1,0-2.8,0c-0.7,0-1.2,0.2-1.6,0.3
		c-0.4,0.2-0.8,0.4-1.2,0.8c-0.4,0.4-0.6,0.8-0.8,1.2c-0.2,0.4-0.3,1-0.3,1.7c0,0.7,0,1,0,2.9c0,1.9,0,2.1,0,2.9
		c0,0.7,0.1,1.3,0.3,1.7c0.2,0.5,0.4,0.9,0.8,1.2c0.4,0.4,0.8,0.6,1.2,0.8c0.4,0.2,0.9,0.3,1.6,0.3c0.7,0,0.9,0,2.8,0
		c1.8,0,2.1,0,2.8,0c0.7,0,1.2-0.2,1.6-0.3c0.4-0.2,0.8-0.4,1.2-0.8c0.4-0.4,0.6-0.8,0.8-1.2c0.2-0.4,0.3-1,0.3-1.7c0-0.7,0-1,0-2.9
		s0-2.1,0-2.9c0-0.7-0.1-1.3-0.3-1.7c-0.2-0.5-0.4-0.9-0.8-1.2c-0.4-0.4-0.8-0.6-1.2-0.8c-0.4-0.2-0.9-0.3-1.6-0.3
		C17.9,9,17.7,9,15.9,9L15.9,9z"/>
	<path class="st0" d="M15.9,12.4c-1.9,0-3.5,1.6-3.5,3.6s1.6,3.6,3.5,3.6s3.5-1.6,3.5-3.6S17.8,12.4,15.9,12.4z M15.9,18.3
		c-1.2,0-2.2-1-2.2-2.3s1-2.3,2.2-2.3c1.2,0,2.2,1,2.2,2.3S17.1,18.3,15.9,18.3z"/>
	<ellipse class="st0" cx="19.5" cy="12.3" rx="0.8" ry="0.8"/>
</g>
</svg>
