<?xml version="1.0" encoding="utf-8"?>
<!-- Generator: Adobe Illustrator 21.1.0, SVG Export Plug-In . SVG Version: 6.00 Build 0)  -->
<svg version="1.1" id="Layer_1" xmlns="http://www.w3.org/2000/svg" xmlns:xlink="http://www.w3.org/1999/xlink" x="0px" y="0px"
	 viewBox="0 0 32 32" style="enable-background:new 0 0 32 32;" xml:space="preserve">
<style type="text/css">
	.st0{fill:#4B4B4B; opacity:0.5;}
</style>
<title>linked in</title>
<desc>Created with Sketch.</desc>
<rect x="10.8" y="14.2" class="st0" width="2.2" height="7"/>
<circle class="st0" cx="11.9" cy="12" r="1.3"/>
<path class="st0" d="M16.5,17.8c0-0.9,0.2-1.8,1.3-1.8c1.1,0,1.1,1,1.1,1.9v3.4h2.2v-3.9c0-1.9-0.4-3.4-2.6-3.4
	c-1.1,0-1.8,0.6-2.1,1.1l0,0v-1h-2.1v7h2.2V17.8z"/>
<path class="st0" d="M16.1,0.4C7.5,0.4,0.5,7.4,0.5,16s7,15.6,15.6,15.6s15.6-7,15.6-15.6S24.6,0.4,16.1,0.4z M16.1,29.6
	C8.6,29.6,2.5,23.5,2.5,16S8.6,2.4,16.1,2.4S29.7,8.5,29.7,16S23.6,29.6,16.1,29.6z"/>
</svg>
