<?xml version="1.0" encoding="utf-8"?>
<!-- Generator: Adobe Illustrator 21.1.0, SVG Export Plug-In . SVG Version: 6.00 Build 0)  -->
<svg version="1.1" id="Layer_1" xmlns="http://www.w3.org/2000/svg" xmlns:xlink="http://www.w3.org/1999/xlink" x="0px" y="0px"
	 viewBox="0 0 32 32" style="enable-background:new 0 0 32 32;" xml:space="preserve">
<style type="text/css">
	.st0{fill:#FFFFFF;}
	.st1{fill:none;}
</style>
<title>linked in</title>
<desc>Created with Sketch.</desc>
<g id="Page-1">
	<g id="innit-careers" transform="translate(-1025.000000, -3233.000000)">
		<g id="footer" transform="translate(0.000000, 3063.000000)">
			<g id="social" transform="translate(866.000000, 171.000000)">
				<g id="linked-in" transform="translate(160.000000, 0.000000)">
					<g id="Oval-2">
						<path class="st0" d="M15,30.5c-8.5,0-15.5-7-15.5-15.5S6.5-0.5,15-0.5s15.5,7,15.5,15.5S23.5,30.5,15,30.5z M15,0.5
							C7,0.5,0.5,7,0.5,15S7,29.5,15,29.5S29.5,23,29.5,15S23,0.5,15,0.5z"/>
					</g>
				</g>
			</g>
		</g>
	</g>
</g>
<path class="st1" d="M-69.7-29.1c0-0.1-0.1-0.2-0.2-0.2h-0.2v0.3h0.2C-69.8-28.9-69.7-28.9-69.7-29.1z"/>
<path class="st1" d="M-70-29.7c-0.5,0-0.8,0.4-0.8,0.8c0,0.5,0.4,0.8,0.8,0.8c0.5,0,0.8-0.4,0.8-0.8C-69.1-29.3-69.5-29.7-70-29.7z
	 M-69.7-28.4l-0.3-0.4l0,0h-0.2v0.4h-0.1v-1h0.4c0.2,0,0.4,0.1,0.4,0.3c0,0.2-0.1,0.3-0.3,0.3l0,0l0.3,0.5H-69.7z"/>
<path class="st1" d="M-110.4-35.8c-1.3,0-2,0.9-2.1,1.8h3.9C-108.5-35-109.3-35.8-110.4-35.8z"/>
<path class="st1" d="M-99.5-35.3c-1.5,0-2.4,1-2.4,2.4c0,1.4,0.9,2.4,2.4,2.4c1.5,0,2.4-1,2.4-2.4C-97.1-34.4-98-35.3-99.5-35.3z"/>
<path class="st0" d="M-69.8-28.8c0.2,0,0.3-0.1,0.3-0.3c0-0.2-0.1-0.3-0.4-0.3h-0.4v1h0.1v-0.4h0.2l0,0l0.3,0.4h0.2L-69.8-28.8
	L-69.8-28.8z M-70-28.9h-0.2v-0.3h0.2c0.1,0,0.2,0,0.2,0.2C-69.7-28.9-69.8-28.9-70-28.9z"/>
<path class="st0" d="M-70-29.8c-0.5,0-1,0.4-1,1c0,0.5,0.4,1,1,1c0.5,0,1-0.4,1-1C-69-29.4-69.4-29.8-70-29.8z M-70-28
	c-0.5,0-0.8-0.4-0.8-0.8c0-0.5,0.4-0.8,0.8-0.8c0.5,0,0.8,0.4,0.8,0.8C-69.1-28.4-69.5-28-70-28z"/>
<polygon class="st0" points="-146.9,-42.1 -150,-42.1 -150,-28.2 -141.3,-28.2 -141.3,-31 -146.9,-31 "/>
<rect x="-139.9" y="-37.6" class="st0" width="2.9" height="9.5"/>
<circle class="st0" cx="-138.4" cy="-40.6" r="1.7"/>
<polygon class="st0" points="-114.8,-37.6 -118.4,-37.6 -121.7,-33.8 -121.7,-42.1 -124.7,-42.1 -124.7,-28.2 -121.7,-28.2 
	-121.7,-32.8 -121.7,-32.8 -118.5,-28.2 -114.8,-28.2 -118.6,-33.3 "/>
<path class="st0" d="M-129.7-37.9c-1.4,0-2.4,0.8-2.8,1.5h0v-1.3h-2.8v9.5h2.9v-4.7c0-1.2,0.2-2.4,1.8-2.4c1.5,0,1.5,1.4,1.5,2.5
	v4.6h2.9v-5.2C-126.1-35.9-126.7-37.9-129.7-37.9z"/>
<path class="st0" d="M-110.1-37.9c-2.9,0-5.3,2-5.3,5c0,3,2.4,5,5.3,5c1.5,0,3.1-0.7,4-1.9l-2.1-1.5c-0.5,0.7-1.1,1.2-2.1,1.2
	c-1.1,0-2-0.7-2.2-1.8h6.8v-0.9C-105.6-36-107.3-37.9-110.1-37.9z M-112.5-34c0.1-0.9,0.8-1.8,2.1-1.8c1.1,0,1.8,0.8,1.8,1.8H-112.5
	z"/>
<path class="st0" d="M-97.4-36.7L-97.4-36.7c-0.7-0.9-1.8-1.3-3.1-1.3c-2.7,0-4.4,2.4-4.4,5.1c0,2.9,1.9,4.9,4.7,4.9
	c1.3,0,2.5-0.8,2.9-1.5h0v1.3h2.7v-14h-2.9V-36.7z M-99.5-30.5c-1.5,0-2.4-1-2.4-2.4c0-1.4,0.9-2.4,2.4-2.4c1.5,0,2.4,1,2.4,2.4
	C-97.1-31.5-98-30.5-99.5-30.5z"/>
<path class="st0" d="M-73.1-45.1H-90c-0.8,0-1.5,0.6-1.5,1.4v17c0,0.8,0.7,1.4,1.5,1.4h16.9c0.8,0,1.5-0.6,1.5-1.4v-17
	C-71.6-44.4-72.3-45.1-73.1-45.1z M-72-26.6h-18.5v-16.9H-72V-26.6z"/>
<rect x="10.8" y="14.2" class="st0" width="2.2" height="7"/>
<circle class="st0" cx="11.9" cy="12" r="1.3"/>
<path class="st0" d="M16.5,17.8c0-0.9,0.2-1.8,1.3-1.8c1.1,0,1.1,1,1.1,1.9v3.4h2.2v-3.9c0-1.9-0.4-3.4-2.6-3.4
	c-1.1,0-1.8,0.6-2.1,1.1h0v-1h-2.1v7h2.2V17.8z"/>
</svg>
