<?xml version="1.0" encoding="utf-8"?>
<!-- Generator: Adobe Illustrator 21.1.0, SVG Export Plug-In . SVG Version: 6.00 Build 0)  -->
<svg version="1.1" id="Layer_1" xmlns="http://www.w3.org/2000/svg" xmlns:xlink="http://www.w3.org/1999/xlink" x="0px" y="0px"
	 viewBox="0 0 32 32" style="enable-background:new 0 0 32 32;" xml:space="preserve">
<style type="text/css">
	.st0{fill:#FFFFFF;}
</style>
<title>pinterest</title>
<desc>Created with Sketch.</desc>
<g id="Page-1">
	<g id="innit-careers" transform="translate(-985.000000, -3233.000000)">
		<g id="footer" transform="translate(0.000000, 3063.000000)">
			<g id="social" transform="translate(866.000000, 171.000000)">
				<g id="pinterest" transform="translate(120.000000, 0.000000)">
					<g id="Oval-2">
						<path class="st0" d="M15,30.5c-8.5,0-15.5-7-15.5-15.5S6.5-0.5,15-0.5s15.5,7,15.5,15.5S23.5,30.5,15,30.5z M15,0.5
							C7,0.5,0.5,7,0.5,15S7,29.5,15,29.5S29.5,23,29.5,15S23,0.5,15,0.5z"/>
					</g>
				</g>
			</g>
		</g>
	</g>
</g>
<path class="st0" d="M9.3,16.4c0-0.4,0-1.1,0-1.2c0.2-1.6,0.9-3,2-4.1C13,9.6,14.9,9,17,9.3c1.6,0.2,2.9,0.9,4,2
	c1.5,1.6,2.1,3.4,1.8,5.6c-0.2,1.6-0.9,2.9-2.1,4c-1,0.9-2.1,1.5-3.4,1.7c-0.2,0-0.5,0.1-0.8,0.1c-0.3,0-0.6,0-0.8,0
	c-0.3,0-0.5-0.1-0.8-0.1c-0.3,0-0.5-0.1-0.8-0.2c0.7-1,1-2.2,1.3-3.4c0.4,0.5,0.9,0.8,1.6,0.8c0.8,0,1.4-0.2,2-0.7
	c1.2-1.1,1.7-2.5,1.4-4.1c-0.2-1.4-1.1-2.4-2.4-3c-1-0.4-1.9-0.4-2.9-0.2c-1.4,0.3-2.4,1.1-2.9,2.5c-0.4,1.1-0.4,2.2,0.3,3.3
	c0.2,0.3,0.5,0.6,0.8,0.8c0.1,0.1,0.2,0,0.2-0.1c0.1-0.2,0.1-0.5,0.2-0.7c0-0.1,0-0.2,0-0.2c-0.4-0.6-0.5-1.2-0.5-1.8
	c0.1-0.9,0.5-1.6,1.2-2.1c0.7-0.5,1.5-0.6,2.3-0.5c1,0.2,1.7,0.7,2.1,1.6c0.2,0.5,0.2,1.1,0.2,1.7c-0.1,0.5-0.2,1-0.5,1.5
	c-0.3,0.5-0.8,0.9-1.4,1c-0.8,0.1-1.4-0.5-1.2-1.3c0.1-0.5,0.3-0.9,0.4-1.4c0.1-0.3,0.2-0.7,0.1-1c-0.1-0.5-0.4-0.7-0.9-0.7
	c-0.5,0-0.8,0.3-1,0.7c-0.3,0.6-0.3,1.2-0.1,1.9c0,0.1,0,0.1,0,0.2c-0.2,0.8-0.4,1.7-0.6,2.5c-0.2,0.8-0.3,1.6-0.2,2.5
	c0,0.1,0,0.1,0,0.2c-0.1,0-0.1,0-0.1-0.1c-0.9-0.4-1.6-0.9-2.3-1.6c-0.9-1-1.5-2.1-1.7-3.5C9.4,16.9,9.4,16.6,9.3,16.4z"/>
</svg>
