<?xml version="1.0" encoding="utf-8"?>
<!-- Generator: Adobe Illustrator 21.1.0, SVG Export Plug-In . SVG Version: 6.00 Build 0)  -->
<svg version="1.1" id="Layer_1" xmlns="http://www.w3.org/2000/svg" xmlns:xlink="http://www.w3.org/1999/xlink" x="0px" y="0px"
	 viewBox="0 0 32 32" style="enable-background:new 0 0 32 32;" xml:space="preserve">
<style type="text/css">
	.st0{fill:#FFFFFF;}
</style>
<title>linked in</title>
<desc>Created with Sketch.</desc>
<g id="innit-careers" transform="translate(-1025.000000, -3233.000000)">
	<g id="footer" transform="translate(0.000000, 3063.000000)">
		<g id="social" transform="translate(866.000000, 171.000000)">
			<g id="linked-in" transform="translate(160.000000, 0.000000)">
				<g id="Oval-2">
					<path class="st0" d="M15,30.5c-8.5,0-15.5-7-15.5-15.5S6.5-0.5,15-0.5s15.5,7,15.5,15.5S23.5,30.5,15,30.5z M15,0.5
						C7,0.5,0.5,7,0.5,15S7,29.5,15,29.5S29.5,23,29.5,15S23,0.5,15,0.5z"/>
				</g>
			</g>
		</g>
	</g>
</g>
<g id="Logo__x2014__FIXED">
	<path class="st0" d="M13.7,22.2c5.3,0,8.2-4.4,8.2-8.2c0-0.1,0-0.3,0-0.4c0.6-0.4,1.1-0.9,1.4-1.5c-0.5,0.2-1.1,0.4-1.7,0.5
		c0.6-0.4,1.1-0.9,1.3-1.6c-0.6,0.3-1.2,0.6-1.8,0.7c-0.5-0.6-1.3-0.9-2.1-0.9c-1.6,0-2.9,1.3-2.9,2.9c0,0.2,0,0.5,0.1,0.7
		c-2.4-0.1-4.5-1.3-6-3c-0.2,0.4-0.4,0.9-0.4,1.5c0,1,0.5,1.9,1.3,2.4c-0.5,0-0.9-0.1-1.3-0.4c0,0,0,0,0,0c0,1.4,1,2.6,2.3,2.8
		c-0.2,0.1-0.5,0.1-0.8,0.1c-0.2,0-0.4,0-0.5-0.1c0.4,1.2,1.4,2,2.7,2c-1,0.8-2.2,1.2-3.6,1.2c-0.2,0-0.5,0-0.7,0
		C10.5,21.8,12,22.2,13.7,22.2"/>
</g>
</svg>
