<?xml version="1.0" encoding="utf-8"?>
<!-- Generator: Adobe Illustrator 22.0.0, SVG Export Plug-In . SVG Version: 6.00 Build 0)  -->
<svg version="1.1" id="Layer_1" xmlns="http://www.w3.org/2000/svg" xmlns:xlink="http://www.w3.org/1999/xlink" x="0px" y="0px"
	 viewBox="0 0 401 82" style="enable-background:new 0 0 401 82;" xml:space="preserve">
<style type="text/css">
	.st0{opacity:0.6;fill:#231F20;}
	.st1{opacity:0.6;fill:#FFFFFF;}
</style>
<path class="st0" d="M0,0h80.2c0,27.3,0,54.7,0,82H0V0 M5.9,12.9C9.5,29.5,12.7,46.3,16.1,63c0.6,2,0.2,4.6,2.2,6
	c3.5,0.6,7.1,0.4,10.6,0.2c1.9,0.1,2.4-2.2,2.7-3.7c2.4-11.9,5-23.7,7.4-35.6c0.2-1.1,0.5-2.2,1-3.2c3,12.8,5.5,25.6,8.2,38.4
	c0.4,1.4,0.5,3,1.8,3.9c3.8,0.5,7.7,0.5,11.5,0c1.4-0.8,1.4-2.5,1.8-3.9c3.5-17.4,6.8-34.9,10.5-52.3c-3.4,0-6.7,0-10.1,0
	c-2.7,15.2-4.8,30.4-7.8,45.5c-3.3-12.8-5.6-25.9-8.5-38.9c-0.7-2.2-0.4-5.4-2.8-6.6c-3-0.2-5.9-0.2-8.9,0c-1.7,0.1-2.1,2.1-2.4,3.4
	C31,29.2,28.2,42,25.6,54.8c-0.3,1.2-0.7,2.3-1.1,3.5c-2.7-15.1-5.2-30.3-7.6-45.4C13.2,12.9,9.6,12.9,5.9,12.9z"/>
<path class="st1" d="M80.2,0h79.5c0,27.3,0,54.7,0,82H80.2C80.2,54.7,80.2,27.3,80.2,0 M100.6,12.3c0,3.4,0,6.7,0,10.1
	c4.6,0,9.1,0,13.7,0c0,12.4,0,24.8,0,37.2c-4.6,0-9.1,0-13.7,0c0,3.4,0,6.7,0,10.1c12.9,0,25.8,0,38.8,0c0-3.3,0-6.7,0-10.1
	c-4.6,0-9.1,0-13.7,0c0-12.4,0-24.8,0-37.2c4.6,0,9.1,0,13.7,0c0-3.4,0-6.7,0-10.1C126.5,12.3,113.5,12.3,100.6,12.3z"/>
<path class="st0" d="M159.8,0H240c0,27.3,0,54.7,0,82h-80.2C159.8,54.7,159.8,27.3,159.8,0 M177.9,12.9c0,18.8,0,37.5,0,56.2
	c3.7,0,7.4,0,11.1,0c0-7.3,0-14.7,0-22c6,0,12.1,0,18.1,0c2.2-0.2,4.8,1.4,4.8,3.8c0.3,6.1,0.8,12.1,1.2,18.2c3.5,0,7.1,0,10.6,0
	c-1-6.9,0.2-14-1.7-20.7c-1-3.5-4.9-4.3-7.9-5.2c2.3-1.2,5.2-1.3,6.8-3.5c2.4-3,2.6-7,2.6-10.7c0-4.3,0.1-9-2.7-12.6
	c-2.2-3-6.3-3.4-9.7-3.4C199.9,12.9,188.9,12.9,177.9,12.9z"/>
<path class="st1" d="M240,0h79.8c0,27.3,0,54.7,0,82H240C240,54.7,240,27.3,240,0 M254.3,12.3c0,3.3,0,6.7,0,10c2.5,0,5.1,0,7.6,0
	c0,12.4,0,24.8,0,37.2c-2.5,0-5.1,0-7.6,0c0,3.3,0,6.7,0,10.1c16.1,0,32.1,0,48.2,0c0.1-6.6,0-13.3,0-19.9c-3.5,0-7,0-10.5,0
	c0,3.3,0,6.5,0,9.8c-6.4,0-12.7,0-19.1,0c-0.1-4.9,0-9.8,0-14.7c5,0,10,0,15,0c0-3.2,0-6.4,0-9.6c-5,0-10,0-15,0c0-4.3,0-8.6,0-12.9
	c6.2,0,12.4,0,18.6,0c0,2.9,0,5.7,0,8.6c3.4,0,6.9,0,10.3,0c0-6.2,0-12.4,0-18.7C286,12.3,270.2,12.3,254.3,12.3z"/>
<path class="st0" d="M319.8,0H401v82h-81.2C319.8,54.7,319.8,27.3,319.8,0 M337.9,12.9c0,18.8,0,37.5,0,56.2c9.4,0,18.7,0,28,0
	c5.8-0.1,12.5-1.2,15.9-6.3c4.1-6.5,3.4-14.4,4.2-21.7c-0.7-7.3-0.1-15.3-4.2-21.8c-3.2-4.8-9.4-6.1-14.8-6.3
	C357.3,12.8,347.6,12.9,337.9,12.9z"/>
<path class="st0" d="M100.6,12.3c12.9,0,25.8,0,38.8,0c0,3.4,0,6.7,0,10.1c-4.6,0-9.1,0-13.7,0c0,12.4,0,24.8,0,37.2
	c4.6,0,9.1,0,13.7,0c0,3.3,0,6.7,0,10.1c-12.9,0-25.8,0-38.8,0c-0.1-3.4-0.1-6.7,0-10.1c4.6,0,9.1,0,13.7,0c0-12.4,0-24.8,0-37.2
	c-4.6,0-9.1,0-13.7,0C100.6,19,100.6,15.7,100.6,12.3z"/>
<path class="st0" d="M254.3,12.3c15.8-0.1,31.7-0.1,47.5,0c0,6.2,0,12.4,0,18.7c-3.4,0-6.9,0-10.3,0c0-2.9,0-5.7,0-8.6
	c-6.2,0-12.4,0-18.6,0c0,4.3,0,8.6,0,12.9c5,0,10,0,15,0c0,3.2,0,6.4,0,9.6c-5,0-10,0-15,0c0,4.9,0,9.8,0,14.7
	c6.4-0.1,12.7,0,19.1,0c0-3.3,0-6.5,0-9.8c3.5,0,7,0,10.5,0c0,6.6,0,13.3,0,19.9c-16.1,0-32.1,0-48.2,0c-0.1-3.4,0-6.7,0-10.1
	c2.6,0,5.1,0,7.6,0c0-12.4,0-24.8,0-37.2c-2.5,0-5.1,0-7.6,0C254.3,19,254.3,15.7,254.3,12.3z"/>
<path class="st1" d="M5.9,12.9c3.7,0,7.3,0,11,0c2.3,15.2,4.9,30.3,7.6,45.4c0.4-1.1,0.8-2.3,1.1-3.5C28.2,42,31,29.2,33.7,16.4
	c0.3-1.3,0.7-3.3,2.4-3.4c3-0.2,5.9-0.2,8.9,0c2.4,1.1,2.1,4.3,2.8,6.6c2.9,12.9,5.1,26,8.5,38.9c3-15.1,5.1-30.4,7.8-45.5
	c3.4,0,6.7,0,10.1,0c-3.7,17.4-7,34.9-10.5,52.3c-0.4,1.4-0.4,3.1-1.8,3.9c-3.8,0.5-7.7,0.5-11.5,0c-1.3-0.8-1.4-2.5-1.8-3.9
	c-2.8-12.8-5.2-25.7-8.2-38.4c-0.5,1-0.9,2.1-1,3.2c-2.4,11.9-5,23.7-7.4,35.6c-0.4,1.4-0.8,3.7-2.7,3.7c-3.5,0.2-7.1,0.4-10.6-0.2
	c-1.9-1.3-1.5-4-2.2-6C12.7,46.3,9.5,29.5,5.9,12.9z"/>
<path class="st1" d="M177.9,12.9c11,0,22.1,0,33.1,0c3.4,0,7.5,0.4,9.7,3.4c2.7,3.6,2.6,8.3,2.7,12.6c0,3.7-0.2,7.7-2.6,10.7
	c-1.6,2.2-4.5,2.3-6.8,3.5c3,0.9,6.9,1.7,7.9,5.2c1.9,6.7,0.7,13.8,1.7,20.7c-3.5,0-7,0-10.6,0c-0.4-6.1-0.9-12.1-1.2-18.2
	c0.1-2.4-2.6-4-4.8-3.8c-6,0-12.1,0-18.1,0c0,7.3,0,14.7,0,22c-3.7,0-7.4,0-11.1,0C177.9,50.4,177.9,31.6,177.9,12.9 M189,22.1
	c0,5.4,0,10.9,0,16.3c6.6-0.1,13.3,0.2,20-0.1c3.6-0.2,3.6-4.5,3.8-7.2c-0.1-3,0.4-6.9-2.3-8.8C203.3,21.9,196.1,22.2,189,22.1z"/>
<path class="st1" d="M337.9,12.9c9.7,0,19.4-0.1,29.1,0.1c5.4,0.2,11.6,1.5,14.8,6.3c4.1,6.5,3.4,14.5,4.2,21.8
	c-0.7,7.3-0.1,15.2-4.2,21.7c-3.5,5.2-10.2,6.2-15.9,6.3c-9.4,0.1-18.7,0-28,0C337.9,50.4,337.9,31.6,337.9,12.9 M349,22.1
	c0,12.6,0,25.2,0,37.8c5.7,0,11.4,0,17.1,0c2.7,0,6-0.7,7.3-3.4c1.9-4.2,1.4-9,1.6-13.4c-0.2-5.6,0.6-11.5-1.3-16.9
	c-0.9-2.8-3.9-4.1-6.6-4C361.1,22.1,355,22.1,349,22.1z"/>
<path class="st0" d="M189,22.1c7.1,0.1,14.3-0.2,21.4,0.1c2.8,1.9,2.2,5.9,2.3,8.8c-0.1,2.7-0.2,7-3.8,7.2c-6.6,0.3-13.3,0-20,0.1
	C189,33,189,27.5,189,22.1z"/>
<path class="st0" d="M349,22.1c6,0,12.1,0,18.1,0c2.7,0,5.8,1.3,6.6,4c1.9,5.4,1.1,11.3,1.3,16.9c-0.2,4.5,0.3,9.2-1.6,13.4
	c-1.3,2.7-4.6,3.4-7.3,3.4c-5.7,0-11.4,0-17.1,0C349,47.3,349,34.7,349,22.1z"/>
</svg>
