<?xml version="1.0" encoding="utf-8"?>
<!-- Generator: Adobe Illustrator 21.1.0, SVG Export Plug-In . SVG Version: 6.00 Build 0)  -->
<svg version="1.1" id="Layer_1" xmlns="http://www.w3.org/2000/svg" xmlns:xlink="http://www.w3.org/1999/xlink" x="0px" y="0px"
	 viewBox="0 0 1558.5 213.1" style="enable-background:new 0 0 1558.5 213.1;" xml:space="preserve">
<style type="text/css">
	.st0{fill:#4B4B4B;}
</style>
<g>
	<g id="xfrm19" transform="matrix(0.335998,0,0,0.335998,407.9057,266.2093)">
		<path id="path59" class="st0" d="M773.3-473.6c0,37.4,14.7,72.3,41.3,98.3c26.5,25.9,61.8,40.1,99.5,40.1
			c76.3,0,138.4-62.1,138.4-138.4c0-37.7-14.2-73-40.1-99.5c-26-26.6-60.9-41.3-98.3-41.3C836.4-614.3,773.3-551.2,773.3-473.6z
			 M826.9-387.6L826.9-387.6c-23.8-23.1-36.9-53.7-36.9-86c0-68.4,55.6-124,124-124c32.3,0,62.8,13.1,86,36.8
			c23,23.6,35.6,54.6,35.6,87.1c0,67.1-54.6,121.6-121.6,121.6C881.5-352,850.5-364.6,826.9-387.6z M955.8-559.4v43.2h-85.9v-43.2
			c0-5.4-1.8-5.9-3.5-5.9c-1.1,0-2.1,0.3-3,0.9c-32,19.4-51.1,53.4-51.1,90.8c0,36.4,18.6,68.7,51.1,88.4c0.9,0.6,2,0.9,3,0.9
			c3.3,0,3.5-3.4,3.5-3.5v-45.5h85.9v45.5c0,1.7,0.5,3.5,5.9,3.5c0.4,0,1.1-0.1,1.8-0.5c30.8-18.4,50-52.4,50-88.8
			c0-37.2-19.1-72.8-48.8-90.8c-0.9-0.6-2-0.9-3-0.9C958.4-565.2,955.8-562.6,955.8-559.4z M847.1-426.4
			c-10.4-15.9-15.2-30.8-15.2-47.2c0-21.5,8.3-38.7,15.2-49.4l3.5-5.3l-0.3,9.3v88.6l0.1,2.9l0.2,6.3L847.1-426.4z M869.9-454.7
			v-41.8h85.9v43.6h-85.9V-454.7z M975.3-521.9l-0.2-8.5l3.5,5.7c9.9,16.1,15.3,34.2,15.3,51.1c0,21.6-8.2,37.6-15.3,49.1l-3.5,5.7
			c0,0,0.3-9.5,0.3-9.6s0-92.5,0-92.5l0.1,0.4L975.3-521.9"/>
	</g>
	<g id="g26531">
		<g id="q57" transform="matrix(6.450046,0,0,-6.450046,-2654.615,2342.933)">
			<g id="xfrm58" transform="matrix(0.335998,0,0,0.335998,407.9057,266.2093)">
				<path id="path3190" class="st0" d="M400.7,233.7c0,1.7-1.2,2.8-3.8,2.8h-5.1v-5.6h5.3C399.2,230.9,400.7,231.6,400.7,233.7z
					 M399.8,244.9c0,1.6-1.1,2.7-2.7,2.7h-5.3v-5.3h5.1C398.8,242.3,399.8,243.6,399.8,244.9z M408.4,232.9c0-4.8-4.5-8-9-8h-14.6
					v28.7h13.4c5.2,0,8.9-2.6,8.9-7.9c0-4.5-3.9-5.9-3.9-5.9S408.4,238.6,408.4,232.9"/>
			</g>
		</g>
		<g id="q59" transform="matrix(6.450046,0,0,-6.450046,-2654.615,2342.933)">
			<g id="xfrm60" transform="matrix(0.335998,0,0,0.335998,407.9057,266.2093)">
				<path id="path3194" class="st0" d="M430.3,239.3c0,4.5-2.1,8.1-6.1,8.1c-4.1,0-6.1-3.6-6.1-8.1s2-8.2,6.1-8.2
					C428.3,231.1,430.3,234.7,430.3,239.3z M437.4,239.3c0-8.4-4.8-15-13.2-15c-8.3,0-13.2,6.6-13.2,15s4.9,15,13.2,15
					C432.6,254.3,437.4,247.7,437.4,239.3"/>
			</g>
		</g>
		<g id="q61" transform="matrix(6.450046,0,0,-6.450046,-2654.615,2342.933)">
			<g id="xfrm62" transform="matrix(0.335998,0,0,0.335998,407.9057,266.2093)">
				<path id="path3198" class="st0" d="M462,233.6c0-6.3-5.7-9.4-11.1-9.4c-6.2,0-9.4,2.4-11.9,5.4l4.6,4.5c1.9-2.5,4.5-3.7,7.3-3.7
					c2.3,0,3.9,1.1,3.9,2.8c0,1.8-1.4,2.4-5.1,3.2l-1,0.2c-4.5,0.9-8.2,3.5-8.2,8.6c0,5.6,4.6,9,10.6,9c5.1,0,8.4-2.2,10.5-4.5
					l-4.5-4.4c-1.4,1.5-3.5,2.7-5.9,2.7c-1.6,0-3.5-0.8-3.5-2.7c0-1.7,1.9-2.4,4.4-2.9l1-0.2C457.1,241.5,462,240.2,462,233.6"/>
			</g>
		</g>
		<g id="q63" transform="matrix(6.450046,0,0,-6.450046,-2654.615,2342.933)">
			<g id="xfrm64" transform="matrix(0.335998,0,0,0.335998,407.9057,266.2093)">
				<path id="path3202" class="st0" d="M489.3,230.4c-2.9-4.2-5.7-6.2-11.3-6.2c-8.1,0-13.3,6.7-13.3,15.2c0,8.1,4.7,14.8,13.4,14.8
					c4.8,0,8.2-1.9,11.1-6.2l-5.8-3.9c-1.2,2-2.7,3.2-5.2,3.2c-3.2,0-6.3-2.9-6.3-8c0-5.7,3.3-8.3,6.5-8.3c2.7,0,4,1.4,5.2,3.3
					L489.3,230.4"/>
			</g>
		</g>
		<g id="q65" transform="matrix(6.450046,0,0,-6.450046,-2654.615,2342.933)">
			<g id="xfrm66" transform="matrix(0.335998,0,0,0.335998,407.9057,266.2093)">
				<path id="path3206" class="st0" d="M516.2,224.9h-7.6v11.3h-8.7v-11.3h-7.4v28.7h7.5V243h8.7v10.6h7.6v-28.7"/>
			</g>
		</g>
	</g>
</g>
<g>
	<path class="st0" d="M101.1,9.3c0.2,0,0.4,0.1,0.6,0.1c1.6,0.1,3.4,0.1,5,0.2c4,0.3,7.8,0.8,11.7,1.5c5.2,0.9,10.2,2.4,15.2,4.2
		c4.9,1.8,9.6,4,14.1,6.5c3.6,2.1,7.1,4.3,10.4,6.8c3.1,2.3,6.1,4.9,9,7.7c5.1,4.9,9.6,10.2,13.4,16.1c3.4,5,6.2,10.2,8.5,15.7
		c1.8,4.3,3.4,8.8,4.6,13.3c0.8,3,1.5,6,2,9.1c0.5,3.1,0.9,6.3,1.1,9.4c0.3,4.2,0.3,8.5,0.1,12.7c-0.3,4.3-0.8,8.5-1.6,12.7
		c-1.5,7.7-3.9,15.1-7.1,22.4c-1.6,3.6-3.5,7.1-5.7,10.5c-2.2,3.5-4.6,7-7.3,10.2c-2.8,3.4-5.7,6.5-8.8,9.5
		c-4.2,4-8.7,7.5-13.4,10.6c-4.6,3.1-9.6,5.7-14.7,7.9c-5.2,2.2-10.8,4-16.4,5.2c-3.4,0.8-6.7,1.3-10.1,1.7
		c-4.6,0.5-9.3,0.8-13.9,0.6c-3.4-0.1-6.7-0.4-10.1-0.9c-5.3-0.7-10.6-1.9-15.7-3.4c-5-1.5-9.8-3.5-14.5-5.9
		c-5.1-2.6-9.9-5.6-14.5-9c-2.8-2.1-5.4-4.3-7.9-6.7c-3.1-2.8-5.9-5.9-8.6-9.1c-2.2-2.7-4.2-5.4-6.1-8.3c-2.4-3.6-4.6-7.3-6.4-11.3
		c-1.9-3.9-3.5-7.9-4.8-12c-1.5-4.7-2.8-9.6-3.5-14.5c-0.5-3-0.9-6-1-9c-0.1-2.4-0.3-4.9-0.3-7.3c0-3,0.1-6,0.4-9
		c0.2-1.8,0.3-3.7,0.6-5.5c0.4-3.1,1-6.2,1.8-9.2c1.1-4.5,2.6-9,4.3-13.3c1.7-4.3,3.8-8.5,6.2-12.6c2.3-4,5-7.8,7.8-11.4
		c3.9-4.9,8.2-9.4,12.9-13.4c4.3-3.7,8.9-7,13.8-9.8c3.7-2.2,7.6-4.1,11.5-5.8c4.1-1.7,8.3-3.2,12.7-4.3c2.8-0.7,5.4-1.3,8.3-1.8
		c3-0.5,6-0.9,9.1-1.1c2-0.1,4-0.2,6-0.3c0.2,0,0.3-0.1,0.5-0.1C100.5,9.3,100.9,9.3,101.1,9.3z M100.7,12.8
		c-2.2,0.1-4.3,0.2-6.4,0.3c-4.1,0.3-8.2,0.8-12.2,1.6c-5.1,1-10,2.5-14.8,4.4c-4.5,1.7-8.8,3.9-12.9,6.3c-3.4,2-6.6,4.1-9.7,6.5
		c-3.2,2.4-6.2,5.1-9,7.9c-2.4,2.3-4.6,4.8-6.7,7.4c-2.6,3.1-4.9,6.5-7,9.9c-2.6,4.2-4.9,8.7-6.8,13.3c-2.5,6.1-4.4,12.3-5.6,18.8
		c-0.8,4.2-1.3,8.4-1.5,12.7c-0.2,3.9-0.2,7.8,0.1,11.7c0.2,2.8,0.5,5.6,0.9,8.3c0.5,3.1,1.1,6.2,2,9.3c1.2,4.6,2.8,9,4.6,13.3
		c1.6,3.9,3.6,7.7,5.8,11.3c2.1,3.4,4.4,6.8,7,10c3.1,3.9,6.5,7.5,10.1,10.8c4,3.7,8.4,7.1,13.2,10.1c4.2,2.7,8.6,5,13.2,6.9
		c5,2.2,10.1,3.8,15.3,5c2.3,0.5,4.6,0.9,7,1.3c2.2,0.3,4.4,0.6,6.6,0.7c2.5,0.2,5,0.3,7.5,0.3c3.7,0,7.5-0.3,11.2-0.7
		c2.7-0.3,5.3-0.8,7.9-1.4c4.3-0.9,8.5-2.2,12.6-3.7c5.1-1.9,10-4.2,14.6-7c5.7-3.4,11-7.2,15.8-11.7c5-4.6,9.5-9.7,13.3-15.3
		c4.2-6.1,7.7-12.6,10.5-19.5c1.5-3.9,2.8-7.8,3.8-11.8c0.9-3.4,1.5-6.9,2-10.3c0.3-2.5,0.6-5.1,0.7-7.6c0.2-3.7,0.2-7.5-0.1-11.2
		c-0.2-3.2-0.6-6.3-1-9.4c-0.5-2.9-1.1-5.8-1.8-8.6c-1.2-4.6-2.8-9.2-4.7-13.6c-2.8-6.5-6.4-12.7-10.6-18.3
		c-4-5.5-8.7-10.6-13.9-15.1c-2.8-2.5-5.8-4.7-8.9-6.9c-3.4-2.3-6.9-4.4-10.6-6.2c-3.3-1.6-6.6-3.1-10.1-4.3c-6.8-2.5-13.9-4-21-4.8
		C107.5,13,104.2,12.9,100.7,12.8z"/>
	<path class="st0" d="M108.8,32.8c0.5-0.6,1.2-0.9,1.9-1.2c1.4-0.6,2.8-0.9,4.4-1c4.2-0.5,8.4-0.4,12.7,0.1c4.1,0.5,8.2,1.4,12,2.8
		c1.4,0.5,2.9,0.9,4.3,1.3c2.2,0.7,4.2,1.7,6.2,2.8c5,2.8,9.4,6.4,13.3,10.4c4.3,4.3,7.9,9.1,11.2,14.3c2.6,4.1,4.7,8.3,6.6,12.8
		c2,4.7,3.4,9.6,4.6,14.5c0.8,3.5,1.4,7.1,1.8,10.8c0.5,4.7,0.6,9.6,0.3,14.3c-0.4,8.1-1.9,15.9-4.3,23.7c-0.1,0.2-0.2,0.4-0.3,0.8
		c-0.2-0.4-0.3-0.8-0.3-1.1c0-1,0-2,0-3c0.2-3.3,0.5-6.5,0.7-9.7c0.3-4.2,0.3-8.4-0.3-12.6c-0.4-2.9-1.1-5.9-2.6-8.5
		c-2.1-3.7-5.1-5.9-9.2-6.8c-0.7-0.2-1.4,0-2.1,0.1c-2.2,0.3-4.3,1.2-5.9,2.8c-2.2,2-3,4.5-3,7.3c0,2.2,0.5,4.4,1.7,6.4
		c0.5,0.9,1.1,1.5,2,2.1c1.5,1,3.1,1.3,4.8,0.6c1.3-0.5,2.4-1.4,3.4-2.3c0.5-0.5,0.9-1,1.4-1.6c0.1,0.2,0.2,0.3,0.3,0.4
		c1.3,3.2,2.1,6.5,2.4,9.9c0.3,2.7,0.3,5.4,0.1,8.1c-0.3,4.1-1.1,8.2-2.2,12.2c-2.2,7.2-5.3,13.9-9.6,20.1
		c-2.6,3.8-5.5,7.3-8.7,10.5c-2.7,2.7-5.6,5.2-8.7,7.4c-4,2.9-8.3,5.4-12.7,7.5c-4.8,2.2-9.8,3.8-14.9,5c-3.9,0.9-7.7,1.5-11.7,1.7
		c-3.3,0.3-6.6,0.3-9.9,0.3c-3.7-0.1-7.5-0.4-11.1-1c-2.8-0.4-5.5-0.9-8.3-1.5c-0.2,0-0.3-0.1-0.5-0.2c0.3-0.3,0.5-0.3,0.9-0.3
		c0.8-0.1,1.5-0.2,2.2-0.3c2.3-0.2,4.6-0.3,6.9-0.4c4.1-0.3,8.2-0.8,12.2-2c2.2-0.6,4.2-1.4,6.1-2.6c1-0.7,2-1.4,2.8-2.3
		c1.8-2.2,2.5-4.6,2.4-7.4c0-0.4,0-0.9,0-1.3c0-1.3-0.3-2.6-0.9-3.7c-1.8-3.4-4.6-5.6-8.4-6.3c-0.3-0.1-0.8-0.1-1.1-0.1
		c-1.7,0-3.4,0.1-5.1,0.5c-1.2,0.3-2.2,0.9-3.2,1.7c-2.5,2.2-2.9,5.7-1.1,8.7c1.1,1.8,2.8,3.1,4.6,4.1c0.2,0.1,0.3,0.2,0.6,0.3
		c-0.2,0.1-0.3,0.2-0.3,0.2c-2.8,0.7-5.7,1.3-8.5,1.6c-3.2,0.4-6.4,0.6-9.6,0.5c-2.2-0.1-4.4-0.3-6.5-0.5c-4.3-0.6-8.4-1.7-12.5-3.3
		c-4-1.5-7.7-3.5-11.2-5.9c-3.9-2.6-7.4-5.5-10.6-8.9c-2.7-2.8-5.1-5.7-7.2-8.8c-2.6-3.6-4.9-7.5-6.9-11.5c-2-4-3.5-8.1-4.9-12.2
		c-1.6-5.2-2.8-10.4-3.5-15.7c-0.7-4.9-0.9-9.9-0.8-14.9c0.3-8.3,1.8-16.4,4.6-24.3c0.1-0.2,0.1-0.3,0.3-0.3c0,0.2,0,0.3,0,0.5
		c-0.2,3.3-0.3,6.5-0.4,9.7c-0.2,4-0.3,8.1-0.1,12.1c0.2,2.8,0.6,5.8,1.4,8.5c0.6,2.1,1.5,4,2.8,5.7c1.9,2.4,4.3,3.7,7.3,4.2
		c2.2,0.3,4.3,0.1,6.3-0.8c2.8-1.1,4.5-3.3,5.3-6.1c0.4-1.3,0.6-2.7,0.6-4c0-2.1-0.5-4-1.6-5.7c-1.2-2.1-2.9-3.6-4.9-4.9
		c-0.8-0.4-1.5-0.6-2.3-0.2c-0.3,0.2-0.4,0.3-0.5,0.6c-0.3,0.9-0.6,1.8-0.7,2.8c-0.3,1.5-1,2.6-2.5,3.1c-0.2,0.1-0.3,0.2-0.5,0.3
		c-0.6,0.3-1.1,0.2-1.5-0.3c-0.3-0.4-0.7-0.9-0.9-1.5c-0.6-1.4-0.9-2.8-1-4.4c-0.5-3.8-0.4-7.6-0.1-11.3c0.3-3,0.8-5.9,1.4-8.9
		c0.3-1.1,0.3-2.2,0.6-3.3c0.8-3.9,2-7.7,3.5-11.3c2.3-5.5,5.2-10.7,8.9-15.4c3.1-4,6.7-7.7,11-10.5c1.3-0.9,2.6-1.8,3.9-2.8
		c5.1-3.7,10.6-6.4,16.4-8.5c5.4-2,10.9-3.4,16.6-4.5c3.2-0.6,6.4-1,9.6-1.3c3.9-0.3,7.7-0.4,11.5-0.3c4.5,0.3,8.9,0.9,13.2,2.2
		c1.8,0.5,3.5,1.2,5.2,2.1c0.1,0.1,0.3,0.1,0.3,0.3c-0.2,0-0.4,0-0.6-0.1c-0.3,0-0.5,0-0.7-0.1c-4.9-0.4-9.8-0.5-14.7-0.2
		c-4,0.3-7.9,0.9-11.7,2.1c-1.8,0.6-3.5,1.3-5.1,2.3c-0.8,0.5-1.5,1.1-2.2,1.8c-2,2-2.5,4.3-1.6,7c0.3,0.9,0.6,1.6,1,2.4
		c0.8,1.5,1.9,2.8,3.1,4c2.8,2.9,6.9,3.7,10.8,2c2.1-0.9,3.8-2.2,5-4.2c1.5-2.6,1.2-5.3-1-7.3c-0.3-0.2-0.4-0.4-0.7-0.6
		C109.1,33,108.9,32.9,108.8,32.8z M119.8,85.7c-0.2,0.2-0.3,0.3-0.5,0.3c-6.9,4.6-13.9,9-21.3,13.1c-2.3,1.3-4.7,2.4-7.1,3.6
		c-0.2,0.1-0.4,0.2-0.7,0.3c0-0.3,0.1-0.4,0.1-0.6c0.2-1.4,0.3-2.8,0.4-4.1c0-0.4,0.2-0.8,0.5-1c2.2-1.7,4.4-3.7,6.1-6
		c1.3-1.7,2.4-3.6,2.9-5.8c0.4-1.8,0.4-3.5-0.3-5.2c-1-2.3-4.1-4.3-7.3-2.8c-0.9,0.4-1.8,1-2.6,1.8c-2.3,2.3-3.9,5.1-4.6,8.3
		c-0.3,1.7-0.5,3.4,0.3,5c0,0,0,0.1,0,0.2c-1,0.7-2.2,1.5-3.2,2.2S80.2,96,79,96.3c-1.3,0.3-2.6,0.5-3.9,0.8c-1.2,0.2-2.4,0-3.5-0.7
		c-1.7-1.1-2.5-2.8-3-4.7c0.3-0.1,0.4-0.2,0.6-0.3C75.3,89,80.6,85.4,85,80.6c4-4.5,7-9.6,8.7-15.3c0.9-3.3,1.4-6.6,0.9-10
		c-0.3-1.6-0.8-3.1-1.6-4.5c-1.5-2.3-3.9-3.4-6.6-3.3c-2.3,0.2-4.6,0.8-6.7,1.6c-4.5,1.8-8.2,4.7-11.1,8.6c-2.2,2.8-3.9,5.9-5.1,9.1
		c-1.6,4.3-2.7,8.8-2.8,13.4c-0.1,1.5,0,3,0,4.5c0,0.3,0,0.4,0,0.8c-0.6-0.2-1.1-0.3-1.5-0.6c-3.7-1.5-6-4.1-6.9-8.1
		c-0.4-1.9-0.5-3.8-0.6-5.7c-0.1-1-0.2-2-0.3-3c-0.1-0.9-0.4-1.9-1-2.8c-0.3-0.4-0.8-0.5-1.3-0.4c-0.6,0.1-1,0.4-1.4,0.9
		c-0.4,0.6-0.9,1.2-1.1,1.8c-0.7,1.5-1,3.1-1.2,4.7c-0.3,3.3,0.1,6.5,1.3,9.6c1.1,2.8,2.8,5.2,5.2,7.1c2.4,1.8,5.2,2.8,8.1,3.1
		c0.4,0.1,0.7,0.3,0.9,0.7c0.8,1.8,1.6,3.5,2.7,5.2c0.9,1.4,1.8,2.7,3.1,3.8c1.6,1.5,3.6,2.3,5.9,2.3c1.5,0,3-0.3,4.5-0.6
		c2.4-0.7,4.7-1.5,7.1-2.2c0.3-0.1,0.4-0.1,0.8-0.2c0.3,1.5,0.1,2.9-0.1,4.4c-0.3,0.1-0.6,0.2-0.9,0.3c-2.4,0.6-4.7,1.5-7,2.4
		c-10.9,4.6-19.9,11.6-26.6,21.5c-3.4,4.9-5.8,10.2-6.8,16.2c-0.5,2.8-0.6,5.8,0.1,8.6c0.6,2.6,1.7,4.8,3.7,6.6
		c1.8,1.7,4,2.8,6.4,3.2c1.3,0.3,2.7,0.3,4,0.5c2.7,0.3,5.3,0.1,7.9-0.7c3.4-1,6.3-2.8,8.9-5.2c3.1-2.9,5.5-6.3,7.5-10
		c2.8-5.2,4.8-10.7,6.2-16.4c1-4.2,1.9-8.4,2.2-12.8c0.3-2.9,0.4-5.8,0.3-8.7c0-0.3,0-0.8,0-1.1c2.3-0.7,4.5-1.8,6.5-2.9
		c2.2-1.2,4.5-2.5,6.6-3.9c5.9-3.7,11.7-7.4,17.6-11.2c0.3-0.2,0.4-0.3,0.6-0.4c1.5,1.5,2.2,2.6,1.9,4.4c-0.1,0.1-0.3,0.1-0.3,0.2
		c-3.4,1.4-6.3,3.4-8.9,6c-3.4,3.4-5.9,7.3-7.6,11.7c-2.7,6.5-3.7,13.4-3.2,20.5c0.3,4,1.2,8,2.8,11.8c1.7,4.1,4.1,7.7,7.5,10.7
		c2,1.8,4.3,3.2,6.6,4.3c4.2,2.1,8.6,3.4,13.3,3.6c3.1,0.1,6.1-0.3,9-1.5c2.4-0.9,4.6-2.2,6.5-3.9c1.8-1.5,3.3-3.1,4.6-5
		c1.9-2.6,3.3-5.4,4.2-8.5c0.9-2.8,1.4-5.7,1.5-8.7c0.1-3.3-0.3-6.4-1.4-9.5c-0.7-1.9-1.5-3.7-2.7-5.3c-2.6-3.7-6-6.1-10.2-7.6
		c-1.2-0.4-2.4-0.8-3.8-0.9c-2.4-0.1-4.8,0-7.1,0.6c-5.4,1.4-9.3,4.7-11.1,10.1c-1.5,4.4-1.4,8.8,0,13.2c0.8,2.5,2.1,4.6,4,6.5
		c2.1,2,4.6,2.9,7.5,2.6c0.3,0,0.7,0,1,0c2.2,0.2,4.1-0.3,5.9-1.5c1.9-1.3,3.1-3.1,3.8-5.3c0.8-2.4,0.9-4.8-0.1-7.1
		c-0.9-2.3-2.6-3.8-5.1-4.1c-0.9-0.1-1.7-0.1-2.6-0.1c-1.5,0-3.1,1.3-3.5,2.8c-0.3,1.1,0,2.2,0.5,3.1c0.4,0.9,1,1.5,1.6,2.2
		c0.2,0.2,0.3,0.3,0.5,0.5c-0.6,0.3-1.2,0.5-1.8,0.4c-0.9-0.1-1.8-0.5-2.5-1.2c-2.2-2.1-3-4.6-2.5-7.6c0.3-2.3,1.6-4.1,3.5-5.5
		c1.6-1.3,3.5-2.1,5.6-2.7c0.2-0.1,0.3-0.1,0.5-0.1c1.1,0,2.2,0.1,3.3,0.4c2.8,0.8,4.8,2.5,6.5,4.7c2.9,4,4,8.7,3.4,13.6
		c-0.6,5.2-3,9.5-7,12.9c-2.7,2.3-5.8,3.9-9.1,5.1c-1.2,0.4-2.4,0.6-3.6,0.5c-0.3,0-0.5-0.1-0.7-0.1c-3.4-0.3-6.3-1.5-9-3.5
		c-2.7-2.1-4.6-4.6-6.2-7.6c-2.4-4.6-3.6-9.6-4-14.9c-0.3-4,0.1-8.1,1-12c1-4.3,2.8-8.3,5.5-11.9c2.4-3.1,5.3-5.4,9-7
		c0.4-0.2,0.7-0.2,1,0.1c0.9,0.7,2.1,1.2,3.2,1.5c3.4,1.1,6.9,0.9,10.2-0.3c1.7-0.6,3.4-1.5,4.6-2.8c0.5-0.5,0.9-1,1.1-1.6
		c0.3-0.9,0.3-1.6-0.2-2.4c-1.1-1.9-2.7-3.3-4.7-4c-1.5-0.6-3.3-0.9-4.9-0.9c-2.1,0-4.2,0.3-6.2,0.7c-1.1,0.3-2.3,0.5-3.4,0.8
		c-1.2-1.3-2.4-3.8-2.7-5.7c0.3-0.1,0.5-0.1,0.8-0.3c2.1-1.2,4-2.6,5.8-4.2c3.5-3.2,6.5-6.8,8.8-10.9c1.6-2.8,2.9-5.8,3.6-9
		c0.4-2,0.6-4,0.2-5.9c-0.4-2.2-1.5-4-3.7-4.9c-2.2-0.9-4.3-1.2-6.5-0.4c-0.8,0.3-1.5,0.6-2.3,0.9c-2.8,1.5-5.1,3.6-7,6.2
		c-2.6,3.5-4.4,7.4-5.7,11.5c-0.9,2.9-1.5,5.9-1.6,8.9C119.1,81,119.2,83.4,119.8,85.7z"/>
	<path class="st0" d="M83.2,113c-0.5,2.2-0.9,4.4-1.5,6.5c-1.5,6.3-3.4,12.5-5.9,18.5c-1.6,3.9-3.4,7.7-5.9,11.2
		c-1.4,2-2.9,3.8-4.8,5.3c-1.5,1.2-3.3,2.2-5.2,2.4c-3.4,0.5-6.2-1.2-7.5-4.1c-0.7-1.7-0.9-3.4-0.9-5.2c0.2-4,1.4-7.7,3.1-11.2
		c3.3-6.6,8-12,13.9-16.3c4.1-3,8.6-5.2,13.5-6.7C82.6,113.2,82.8,113.1,83.2,113z"/>
	<path class="st0" d="M67.8,84.3c0.1-0.7,0.1-1.4,0.2-2c0.6-5.2,2.1-10.2,4.6-15c1.5-2.9,3.4-5.6,5.9-7.8c1.4-1.2,2.9-2.1,4.6-2.7
		c0.4-0.2,0.8-0.1,1.1,0.1c1,0.6,1.5,1.5,1.7,2.7c0.2,1,0,2.1-0.3,3.1c-0.4,2-1.3,3.8-2.2,5.6c-2.6,4.7-5.9,9-9.9,12.5
		c-1.5,1.3-3.1,2.5-4.8,3.3c-0.2,0.1-0.4,0.2-0.6,0.3C68,84.2,67.9,84.2,67.8,84.3z"/>
	<path class="st0" d="M137.2,58.7c0.6,0.9,0.9,1.7,0.9,2.7c0.1,1.5-0.3,3.1-0.9,4.6c-0.9,2.2-2.1,4-3.4,5.9
		c-1.8,2.4-3.7,4.6-6.1,6.5c-0.3,0.3-0.6,0.4-0.9,0.6c-0.1,0.1-0.2,0.1-0.3,0.2c0-0.4,0-0.8,0.1-1.2c0.6-4.6,1.9-9.1,4.4-13.2
		c1.2-1.9,2.6-3.6,4.5-4.9C135.9,59.3,136.6,59,137.2,58.7z"/>
	<path class="st0" d="M67.8,84.7c0,2.2,0,4.5,0.5,6.7C67.3,89.2,67.7,87,67.8,84.7z"/>
	<path class="st0" d="M126.5,85.5c-0.1-0.4-0.3-0.9-0.3-1.4c0-0.8,0-1.5,0-2.3c0-0.9,0-1.6,0-2.5C126.4,81.4,126.5,83.4,126.5,85.5
		C126.5,85.4,126.5,85.5,126.5,85.5z"/>
</g>
<g>
	<path class="st0" d="M1227.6,149.4c-4.7,0-9.1,0-13.8,0c-0.1-1.5-0.2-2.9-0.2-4.3c0-14.5,0-29.1,0-43.6c0-17.5,13.7-27.8,28.4-27.4
		c11.6,0.3,19.9,6.3,24.3,16.8c4.5,10.6,2.4,20.6-5.5,29.1c-4.9,5.2-11.3,7.9-18.4,8c-4.8,0.1-9.7,0-14.8,0
		C1227.6,135.2,1227.6,142.3,1227.6,149.4z M1228,115.1c1,0,2,0,3,0c4.5-0.2,9.1,0.2,13.4-0.7c6.7-1.3,10.6-7.9,9.8-14.8
		c-0.9-6.6-6.4-11.8-12.9-12c-6.3-0.2-12.4,4.6-13.2,11.4C1227.5,104.2,1228,109.5,1228,115.1z"/>
	<path class="st0" d="M1289.9,132.6c5.6,6.9,14.2,7.6,20.6,2c1.8-1.6,3.8-2.6,6.1-2.5c3.3,0,6.5,0,10.2,0c-0.2,1.3-0.4,2.6-0.8,3.8
		c-1.6,5-5.2,8.4-9.7,10.9c-16.4,9.6-37.6,1.3-42.4-16.7c-4.1-15.6,5.1-32.8,21.8-36.1c14.3-2.8,28.4,6,31.3,19.9
		c0.6,2.7,0.6,2.7-2,3.8c-11.3,4.8-22.4,9.5-33.7,14.2C1291.1,132.1,1290.6,132.3,1289.9,132.6z M1311.5,110.7
		c-5-5.1-11.1-6.1-17.2-3c-4.7,2.4-8.5,9-7.7,13.5C1294.9,117.7,1303.2,114.2,1311.5,110.7z"/>
	<path class="st0" d="M1421,132.6c2,3.9,7.4,6.3,12.5,5.7c2.7-0.3,5.1-1.3,7-3.3c2.4-2.4,5.3-3.3,8.8-3.1c2.8,0.2,5.6,0,8.5,0
		c-0.1,2.7-1.1,5-2.4,7c-4.4,6.6-10.6,10.6-18.4,11.4c-11.6,1.3-21.6-2-28.3-12c-6.5-9.8-6.8-20.6-0.9-30.8
		c5.7-9.9,14.8-14.7,26.2-14.1c9,0.4,15.9,4.6,20.3,12.7c1.2,2.2,2.3,4.5,3.5,6.7c1.4,2.6,1,3.7-1.7,4.8c-7.3,3.1-14.8,6.2-22.1,9.3
		c-3.3,1.4-6.6,2.7-9.8,4.1C1423.1,131.6,1422.1,132.2,1421,132.6z M1442.1,110.8c-4.7-4.9-10.9-6.2-16.5-3.4
		c-5.3,2.7-8.8,8.7-7.9,13.7C1425.8,117.6,1433.9,114.3,1442.1,110.8z"/>
	<path class="st0" d="M1519.8,113.3c-4.8,0-9.1,0.1-13.5-0.1c-0.8,0-1.8-0.6-2.3-1.3c-3.4-4.3-7.7-6.3-13.1-5.2
		c-5.7,1.3-8.8,5.3-10.5,10.6c-2.5,8.1,1.2,16.6,8.5,19.6c4.9,2,10.2,0.9,13.6-3c2-2.3,4.3-3.2,7.3-3c3.1,0.2,6.3,0.1,9.6,0.1
		c-0.3,4.3-2,7.8-4.7,10.9c-7.4,8.3-20.7,11.2-31.8,7c-10.6-4.1-17.4-14.1-17.6-25.6c-0.1-10,3.2-18.4,11.4-24.3
		c12.9-9.2,31.9-7.1,40.2,7.8C1518,108.7,1518.8,110.9,1519.8,113.3z"/>
	<path class="st0" d="M1388.2,149.4c-4.7,0-9.1,0-13.8,0c-0.1-1.5-0.3-3-0.3-4.5c0-15.8,0-31.7,0-47.4c0-5.6,0.4-11.2,3.6-16.2
		c3.5-5.5,8.5-8.5,15.1-9.1c1.8-0.2,3.5-0.2,5.6-0.4c0,2.5,0,4.9,0,7.3c0,1.8,0.5,4-0.2,5.2c-0.7,1.1-3,1.3-4.6,1.8
		c-3.8,1.3-5.2,3.7-4.9,8.7c3,0,6,0,9.2,0c0,4.2,0,8.2,0,12.4c-3,0-6.2,0-9.5,0C1388.2,121.6,1388.2,135.5,1388.2,149.4z"/>
	<path class="st0" d="M1551.7,107.4c-3,0-6,0-9.1,0c-0.1,1.5-0.2,2.8-0.2,4.1c0,6.1,0.1,12.2,0.2,18.3c0.1,3.2,1.4,5,4.5,5.9
		c1.7,0.5,3.6,0.9,5.4,1.3c0,3.3,0.1,6.6,0,9.8c0,1.4-1.6,2.6-3.2,2.7c-11.3,1-20.6-7.1-20.7-18.6c-0.2-13.8-0.2-27.4-0.3-41.2
		c0-2.8,0-5.6,0-8.6c4.7,0,9.2,0,13.8,0c0,4.4,0,8.8,0,13.4c3.3,0,6.4,0,9.6,0C1551.7,99,1551.7,103.1,1551.7,107.4z"/>
	<path class="st0" d="M1350.5,149.5c-4.7,0-9.1,0-13.5,0c-0.2-0.8-0.4-1.5-0.3-2.2c0.1-10.9-0.1-21.6,0.5-32.5
		c0.6-13.7,11-22.3,24.7-21.3c3.3,0.2,3.3,0.2,3.3,3.5c0,3.1,0,6.3,0,9.5c-1.3,0.1-2.4,0.2-3.6,0.2c-7.3,0.7-10.9,4.6-10.9,12
		c-0.1,9.1-0.1,18.2-0.2,27.4C1350.5,147.3,1350.5,148.3,1350.5,149.5z"/>
</g>
<g>
	<path class="st0" d="M494.2,64.4L494.2,64.4v19.5c0,0.7,0.6,1.3,1.2,1.3l0,0h4.9c-0.1,3.9-1.1,5.6-1.1,5.6
		c-1.4,2.6-4.6,2.6-4.6,2.6c-0.2,0-0.4,0.2-0.4,0.4v3.4c0,0.2,0.2,0.4,0.4,0.4c7-0.1,12.7-6.3,12.7-14.8V64.4c0-0.7-0.6-1.3-1.3-1.3
		h-10.7l0,0C494.7,63.2,494.2,63.8,494.2,64.4z"/>
	<path class="st0" d="M368.9,103.3c1.9,0,3.3,1.5,3.3,3.3c0,1.9-1.5,3.3-3.3,3.3c-1.9,0-3.3-1.5-3.3-3.3S367,103.3,368.9,103.3z
		 M392.1,106.6c0,1.9,1.5,3.3,3.3,3.3c1.9,0,3.3-1.5,3.3-3.3c0-1.9-1.5-3.3-3.3-3.3C393.5,103.3,392.1,104.8,392.1,106.6z
		 M403.9,148.9V64.4c0-0.7-0.6-1.2-1.2-1.2h-14.6c-0.7,0-1.2,0.6-1.2,1.2v34.4h-9.5V64.4c0-0.7-0.6-1.2-1.2-1.2h-14.6
		c-0.7,0-1.2,0.6-1.2,1.2v34.4H353c-4,0-7.2,3.6-7.2,7.9c0,4.3,3.2,7.9,7.2,7.9h7.4v34.5c0,0.7,0.6,1.2,1.2,1.2h14.6
		c0.7,0,1.2-0.6,1.2-1.2v-34.6h9.5V149c0,0.7,0.6,1.2,1.2,1.2h14.6C403.4,150.2,403.9,149.6,403.9,148.9z M472.6,148.9v-39.4
		c7.1-2.2,13.2-5.1,17-9c0.1-0.1,0.6-0.6,0.6-1.2c0-0.9-0.7-1.6-1.6-1.6c0,0-6.5,0-16,0V79.9c0-0.7,0.6-1.2,1.2-1.2h15
		c0.7,0,1.2-0.6,1.2-1.2V64.4c0-0.6-0.6-1.2-1.2-1.2h-32c-0.7,0-1.2,0.6-1.2,1.2v33.4c-8.7,0-17.9,0-26,0V80.3
		c0-0.6,0.6-1.2,1.2-1.2h16.4c0.7,0,1.2-0.6,1.2-1.2V64.4c0-0.6-0.6-1.2-1.2-1.2h-33.4c-0.7,0-1.2,0.6-1.2,1.2v33.3
		c-3.6,0-5.8,0-5.8,0v8.5c0,0,1.6,0,1.5,2v6.5c0,0,0,0.8,0.8,0.8c0.9,0,2,0,3.4,0v33.4c0,0.7,0.6,1.2,1.2,1.2h33.4
		c0.7,0,1.2-0.6,1.2-1.2V135c0-0.7-0.6-1.2-1.2-1.2h-16.4c-0.7,0-1.2-0.6-1.2-1.2v-17.3c7.9-0.3,17.1-0.9,26-2.2V149
		c0,0.7,0.6,1.2,1.2,1.2h14.6C472,150.2,472.6,149.6,472.6,148.9z M352.9,127.3v-5.9l0,0l0,0c0-0.7-0.6-1.2-1.2-1.3l0,0l0,0h-12.2
		l0,0c-0.6,0-1.2,0.6-1.2,1.2l0,0v8.4c0,3-1.5,5.2-4.9,5.2s-4.8-2.2-4.8-5.2V83.5c0-3,1.3-5.2,4.8-5.2s4.9,2.2,4.9,5.2v7.9
		c0,0.7,0.6,1.3,1.3,1.3l0,0l0,0h12.1l0,0l0,0c0.7,0,1.3-0.6,1.3-1.3v-7.4c0-13-7.1-22.2-19.6-22.2c-12.2,0-21.2,9.3-21.2,22.6v44.2
		c0,13.5,9.1,22.6,21.2,22.6C345.8,151.4,352.9,140.6,352.9,127.3z M512.8,63.2h21.2c10.4,0,20,6.1,20,21.5v44.7
		c0,15.4-9.6,20.8-20,20.8h-21.3l0,0c-0.6,0-1.1-0.6-1.2-1.2V64.3C511.6,63.8,512.1,63.2,512.8,63.2z M532.5,79h-3.4l0,0
		c-0.3,0-0.5,0.2-0.6,0.5V134c0.1,0.2,0.2,0.4,0.4,0.4h3.6c3,0,4.5-1.8,4.5-5.8v-44C537,80.8,535.5,79,532.5,79z"/>
</g>
</svg>
