<?xml version="1.0" encoding="utf-8"?>
<!-- Generator: Adobe Illustrator 22.0.0, SVG Export Plug-In . SVG Version: 6.00 Build 0)  -->
<svg version="1.1" id="Layer_1" xmlns="http://www.w3.org/2000/svg" xmlns:xlink="http://www.w3.org/1999/xlink" x="0px" y="0px"
	 viewBox="0 0 450 150" style="enable-background:new 0 0 450 150;" xml:space="preserve">
<style type="text/css">
	.st0{fill:#4B4B4B;}
	.st1{fill-rule:evenodd;clip-rule:evenodd;fill:#4B4B4B;}
</style>
<path class="st0" d="M25.9,125c-6,0-11.7,0-17.7,0c-0.1-1.9-0.3-3.7-0.3-5.5c0-18.6,0-37.2,0-55.8c0-22.4,17.5-35.6,36.4-35.1
	c14.9,0.4,25.5,8,31.1,21.5c5.7,13.6,3.1,26.3-7,37.2c-6.3,6.7-14.4,10.1-23.6,10.3c-6.2,0.1-12.4,0-18.9,0
	C25.9,106.9,25.9,115.9,25.9,125z M26.4,81.2c1.3,0,2.6,0,3.9,0c5.7-0.2,11.6,0.2,17.1-0.9C56,78.7,61,70.2,59.9,61.3
	c-1.1-8.5-8.2-15.1-16.5-15.4c-8.1-0.3-15.9,5.9-16.9,14.6C25.7,67.2,26.4,74,26.4,81.2z"/>
<path class="st0" d="M105.6,103.6c7.2,8.8,18.2,9.7,26.4,2.5c2.3-2,4.8-3.3,7.8-3.2c4.2,0,8.3,0,13,0c-0.3,1.7-0.5,3.3-1,4.8
	c-2.1,6.4-6.7,10.7-12.4,14c-21,12.3-48.1,1.7-54.2-21.4c-5.3-19.9,6.5-42,27.9-46.2c18.3-3.6,36.3,7.7,40.1,25.5
	c0.8,3.5,0.8,3.5-2.5,4.9c-14.4,6.1-28.7,12.1-43.1,18.2C107.2,102.9,106.5,103.2,105.6,103.6z M133.3,75.5
	c-6.4-6.5-14.2-7.8-22-3.8c-6,3.1-10.9,11.5-9.8,17.3C112,84.5,122.6,80,133.3,75.5z"/>
<path class="st0" d="M273.3,103.6c2.6,5,9.5,8.1,16,7.3c3.4-0.4,6.5-1.7,9-4.2c3.1-3.1,6.8-4.2,11.2-4c3.6,0.2,7.2,0,10.9,0
	c-0.1,3.5-1.4,6.4-3.1,9c-5.6,8.4-13.5,13.5-23.5,14.6c-14.9,1.7-27.7-2.5-36.2-15.4c-8.3-12.6-8.7-26.3-1.2-39.4
	c7.3-12.7,18.9-18.8,33.5-18.1c11.5,0.5,20.4,5.9,26,16.2c1.5,2.8,3,5.7,4.5,8.6c1.8,3.3,1.3,4.7-2.2,6.2c-9.4,4-18.9,7.9-28.3,11.9
	c-4.2,1.8-8.4,3.5-12.6,5.3C276,102.3,274.7,103,273.3,103.6z M300.3,75.6c-6-6.3-14-7.9-21.1-4.3c-6.8,3.4-11.2,11.1-10.1,17.5
	C279.5,84.4,289.8,80.1,300.3,75.6z"/>
<path class="st0" d="M399.8,78.9c-6.2,0-11.7,0.1-17.3-0.1c-1,0-2.3-0.8-3-1.6c-4.4-5.5-9.9-8.1-16.8-6.6
	c-7.3,1.6-11.3,6.8-13.4,13.6c-3.2,10.4,1.5,21.2,10.9,25.1c6.3,2.6,13,1.2,17.4-3.9c2.5-3,5.5-4.1,9.4-3.9c4,0.2,8,0.1,12.3,0.1
	c-0.4,5.5-2.6,10-6,13.9c-9.5,10.6-26.5,14.3-40.7,8.9c-13.6-5.2-22.3-18.1-22.5-32.8c-0.1-12.8,4.1-23.6,14.6-31.1
	c16.5-11.8,40.8-9.1,51.5,10C397.5,72.9,398.5,75.8,399.8,78.9z"/>
<path class="st0" d="M231.4,125c-6,0-11.7,0-17.7,0c-0.1-1.9-0.4-3.8-0.4-5.7c0-20.2,0-40.5,0-60.7c0-7.2,0.5-14.3,4.6-20.7
	c4.5-7.1,10.9-10.9,19.3-11.6c2.3-0.2,4.5-0.3,7.2-0.5c0,3.2,0,6.3,0,9.4c0,2.3,0.7,5.1-0.3,6.7c-0.9,1.4-3.9,1.6-5.9,2.3
	c-4.8,1.7-6.6,4.7-6.3,11.1c3.9,0,7.7,0,11.8,0c0,5.4,0,10.5,0,15.9c-3.9,0-7.9,0-12.2,0C231.4,89.4,231.4,107.2,231.4,125z"/>
<path class="st0" d="M440.6,71.3c-3.9,0-7.7,0-11.6,0c-0.1,1.9-0.3,3.6-0.3,5.3c0,7.8,0.1,15.6,0.2,23.4c0.1,4.1,1.8,6.4,5.8,7.6
	c2.2,0.7,4.6,1.1,6.9,1.6c0,4.2,0.1,8.4,0,12.6c0,1.8-2,3.3-4.1,3.5c-14.5,1.3-26.3-9.1-26.5-23.8c-0.3-17.6-0.3-35.1-0.4-52.7
	c0-3.6,0-7.2,0-11c6,0,11.8,0,17.7,0c0,5.6,0,11.3,0,17.2c4.2,0,8.2,0,12.3,0C440.6,60.6,440.6,65.8,440.6,71.3z"/>
<path class="st0" d="M183.2,125.2c-6,0-11.6,0-17.3,0c-0.2-1-0.5-1.9-0.4-2.8c0.1-13.9-0.1-27.7,0.6-41.6
	c0.8-17.5,14.1-28.5,31.6-27.2c4.2,0.3,4.2,0.3,4.2,4.5c0,4,0,8,0,12.2c-1.6,0.1-3.1,0.2-4.6,0.3c-9.4,0.9-13.9,5.9-14,15.4
	c-0.1,11.7-0.1,23.3-0.2,35C183.2,122.3,183.2,123.6,183.2,125.2z"/>
</svg>
