<?xml version="1.0" encoding="utf-8"?>
<!-- Generator: Adobe Illustrator 22.0.0, SVG Export Plug-In . SVG Version: 6.00 Build 0)  -->
<svg version="1.1" id="Layer_1" xmlns="http://www.w3.org/2000/svg" xmlns:xlink="http://www.w3.org/1999/xlink" x="0px" y="0px"
	 viewBox="0 0 450 150" style="enable-background:new 0 0 450 150;" xml:space="preserve">
<style type="text/css">
	.st0{fill:#4B4B4B;}
	.st1{fill-rule:evenodd;clip-rule:evenodd;fill:#4B4B4B;}
</style>
<g id="xfrm19" transform="matrix(0.335998,0,0,0.335998,407.9057,266.2093)">
	<path id="path59" class="st0" d="M-1190.9-565.8c0,37.4,14.7,72.3,41.3,98.3c26.5,25.9,61.8,40.1,99.5,40.1
		c76.3,0,138.4-62.1,138.4-138.4c0-37.7-14.2-73-40.1-99.5c-26-26.6-60.9-41.3-98.3-41.3C-1127.8-706.5-1190.9-643.4-1190.9-565.8z
		 M-1137.3-479.8L-1137.3-479.8c-23.8-23.1-36.9-53.7-36.9-86c0-68.4,55.6-124,124-124c32.3,0,62.8,13.1,86,36.8
		c23,23.6,35.6,54.6,35.6,87.1c0,67.1-54.6,121.6-121.6,121.6C-1082.7-444.2-1113.7-456.8-1137.3-479.8z M-1008.4-651.6v43.2h-85.9
		v-43.2c0-5.4-1.8-5.9-3.5-5.9c-1.1,0-2.1,0.3-3,0.9c-32,19.4-51.1,53.4-51.1,90.8c0,36.4,18.6,68.7,51.1,88.4c0.9,0.6,2,0.9,3,0.9
		c3.3,0,3.5-3.4,3.5-3.5v-45.5h85.9v45.5c0,1.7,0.5,3.5,5.9,3.5c0.4,0,1.1-0.1,1.8-0.5c30.8-18.4,50-52.4,50-88.8
		c0-37.2-19.1-72.8-48.8-90.8c-0.9-0.6-2-0.9-3-0.9C-1005.8-657.4-1008.4-654.8-1008.4-651.6z M-1117.1-518.6
		c-10.4-15.9-15.2-30.8-15.2-47.2c0-21.5,8.3-38.7,15.2-49.4l3.5-5.3l-0.3,9.3l0,88.6c0,0,0.1,2.9,0.1,2.9l0.2,6.3L-1117.1-518.6z
		 M-1094.3-546.9v-41.8h85.9v43.6h-85.9V-546.9z M-988.9-614.1l-0.2-8.5l3.5,5.7c9.9,16.1,15.3,34.2,15.3,51.1
		c0,21.6-8.2,37.6-15.3,49.1l-3.5,5.7c0,0,0.3-9.5,0.3-9.6c0-0.1,0-92.5,0-92.5l0.1,0.4L-988.9-614.1"/>
</g>
<g id="g26531">
	<g id="q57" transform="matrix(6.450046,0,0,-6.450046,-2654.615,2342.933)">
		<g id="xfrm58" transform="matrix(0.335998,0,0,0.335998,407.9057,266.2093)">
			<path id="path3190" class="st0" d="M96.2,248c0,1.7-1.2,2.8-3.8,2.8h-5.1v-5.6h5.3C94.7,245.2,96.2,245.9,96.2,248z M95.3,259.2
				c0,1.6-1.1,2.7-2.7,2.7h-5.3v-5.3h5.1C94.3,256.6,95.3,257.9,95.3,259.2z M103.9,247.2c0-4.8-4.5-8-9-8H80.3v28.7h13.4
				c5.2,0,8.9-2.6,8.9-7.9c0-4.5-3.9-5.9-3.9-5.9C98.7,254.1,103.9,252.9,103.9,247.2"/>
		</g>
	</g>
	<g id="q59" transform="matrix(6.450046,0,0,-6.450046,-2654.615,2342.933)">
		<g id="xfrm60" transform="matrix(0.335998,0,0,0.335998,407.9057,266.2093)">
			<path id="path3194" class="st0" d="M125.8,253.6c0,4.5-2.1,8.1-6.1,8.1c-4.1,0-6.1-3.6-6.1-8.1c0-4.5,2-8.2,6.1-8.2
				C123.8,245.4,125.8,249,125.8,253.6z M132.9,253.6c0-8.4-4.8-15-13.2-15c-8.3,0-13.2,6.6-13.2,15c0,8.4,4.9,15,13.2,15
				C128.1,268.6,132.9,262,132.9,253.6"/>
		</g>
	</g>
	<g id="q61" transform="matrix(6.450046,0,0,-6.450046,-2654.615,2342.933)">
		<g id="xfrm62" transform="matrix(0.335998,0,0,0.335998,407.9057,266.2093)">
			<path id="path3198" class="st0" d="M157.5,247.9c0-6.3-5.7-9.4-11.1-9.4c-6.2,0-9.4,2.4-11.9,5.4l4.6,4.5
				c1.9-2.5,4.5-3.7,7.3-3.7c2.3,0,3.9,1.1,3.9,2.8c0,1.8-1.4,2.4-5.1,3.2l-1,0.2c-4.5,0.9-8.2,3.5-8.2,8.6c0,5.6,4.6,9,10.6,9
				c5.1,0,8.4-2.2,10.5-4.5l-4.5-4.4c-1.4,1.5-3.5,2.7-5.9,2.7c-1.6,0-3.5-0.8-3.5-2.7c0-1.7,1.9-2.4,4.4-2.9l1-0.2
				C152.6,255.8,157.5,254.5,157.5,247.9"/>
		</g>
	</g>
	<g id="q63" transform="matrix(6.450046,0,0,-6.450046,-2654.615,2342.933)">
		<g id="xfrm64" transform="matrix(0.335998,0,0,0.335998,407.9057,266.2093)">
			<path id="path3202" class="st0" d="M184.8,244.7c-2.9-4.2-5.7-6.2-11.3-6.2c-8.1,0-13.3,6.7-13.3,15.2c0,8.1,4.7,14.8,13.4,14.8
				c4.8,0,8.2-1.9,11.1-6.2l-5.8-3.9c-1.2,2-2.7,3.2-5.2,3.2c-3.2,0-6.3-2.9-6.3-8c0-5.7,3.3-8.3,6.5-8.3c2.7,0,4,1.4,5.2,3.3
				L184.8,244.7"/>
		</g>
	</g>
	<g id="q65" transform="matrix(6.450046,0,0,-6.450046,-2654.615,2342.933)">
		<g id="xfrm66" transform="matrix(0.335998,0,0,0.335998,407.9057,266.2093)">
			<path id="path3206" class="st0" d="M211.7,239.2h-7.6v11.3h-8.7v-11.3H188v28.7h7.5v-10.6h8.7v10.6h7.6V239.2"/>
		</g>
	</g>
</g>
</svg>
