<?xml version="1.0" encoding="utf-8"?>
<!-- Generator: Adobe Illustrator 22.0.0, SVG Export Plug-In . SVG Version: 6.00 Build 0)  -->
<svg version="1.1" id="Layer_1" xmlns="http://www.w3.org/2000/svg" xmlns:xlink="http://www.w3.org/1999/xlink" x="0px" y="0px"
	 viewBox="0 0 362.4 150" style="enable-background:new 0 0 362.4 150;" xml:space="preserve">
<style type="text/css">
	.st0{fill:#4B4B4B;}
	.st1{fill-rule:evenodd;clip-rule:evenodd;fill:#4B4B4B;}
</style>
<g>
	<path class="st1" d="M269.1,14C269.1,14,269.1,14,269.1,14c0,0,0,28,0,28c0,1,0.8,1.8,1.7,1.8l0,0h7c-0.1,5.6-1.6,8-1.6,8
		c-2,3.8-6.6,3.7-6.6,3.7c-0.3,0-0.6,0.3-0.6,0.6c0,0,0,4.9,0,4.9c0,0.3,0.3,0.6,0.6,0.6c10.1-0.2,18.2-9,18.2-21.3V14
		c0-1-0.8-1.8-1.8-1.8h-15.3v0C269.8,12.3,269.1,13.1,269.1,14z"/>
	<path class="st1" d="M89.2,69.8c2.7,0,4.8,2.2,4.8,4.8c0,2.7-2.2,4.8-4.8,4.8c-2.7,0-4.8-2.2-4.8-4.8C84.4,72,86.5,69.8,89.2,69.8z
		 M122.5,74.6c0,2.7,2.2,4.8,4.8,4.8c2.7,0,4.8-2.2,4.8-4.8c0-2.7-2.2-4.8-4.8-4.8C124.6,69.8,122.5,72,122.5,74.6z M139.5,135.3V14
		c0-1-0.8-1.7-1.7-1.7h-21c-1,0-1.7,0.8-1.7,1.7v49.4h-13.7V14c0-1-0.8-1.7-1.7-1.7h-21c-1,0-1.7,0.8-1.7,1.7v49.4H66.4
		c-5.7,0-10.3,5.1-10.3,11.3c0,6.2,4.6,11.3,10.3,11.3H77v49.5c0,1,0.8,1.7,1.7,1.7h21c1,0,1.7-0.8,1.7-1.7V85.9h13.7l0,49.5
		c0,1,0.8,1.7,1.7,1.7h20.9C138.7,137.1,139.5,136.3,139.5,135.3z M238,135.3V78.8c10.2-3.1,18.9-7.3,24.4-12.9
		c0.1-0.2,0.8-0.8,0.8-1.7c0-1.3-1-2.3-2.3-2.3c0,0-9.4,0-22.9,0V36.3c0-1,0.8-1.7,1.7-1.7l21.5,0c1,0,1.7-0.8,1.7-1.7V14
		c0-0.9-0.8-1.7-1.7-1.7h-45.9c-1,0-1.7,0.8-1.7,1.7l0,47.9c-12.5,0-25.7,0-37.3,0V36.8c0-0.9,0.8-1.7,1.7-1.7h23.5
		c1,0,1.7-0.8,1.7-1.7V14c0-0.9-0.8-1.7-1.7-1.7h-47.9c-1,0-1.7,0.8-1.7,1.7v47.8c-5.2,0-8.3,0-8.3,0V74c0,0,2.3,0,2.2,2.9v9.3
		c0,0,0,1.1,1.2,1.1c1.3,0,2.9,0,4.9,0v48c0,1,0.8,1.7,1.7,1.7h47.9c1,0,1.7-0.8,1.7-1.7v-20c0-1-0.8-1.7-1.7-1.7H178
		c-1,0-1.7-0.8-1.7-1.7V87.1c11.4-0.4,24.5-1.3,37.3-3.1v51.4c0,1,0.8,1.7,1.7,1.7h21C237.2,137.1,238,136.3,238,135.3z M66.3,104.3
		v-8.4h0l0,0c0-1-0.8-1.7-1.7-1.8l0,0h0H47.1l0,0c-0.9,0-1.7,0.8-1.7,1.7h0v12c0,4.3-2.1,7.4-7.1,7.4c-5,0-6.9-3.1-6.9-7.4V41.4
		c0-4.3,1.9-7.4,6.9-7.4c5,0,7.1,3.1,7.1,7.4c0,0,0,11.4,0,11.4c0,1,0.8,1.8,1.8,1.8c0,0,0,0,0,0h0h17.4l0,0l0,0
		c1,0,1.8-0.8,1.8-1.8V42.2c0-18.7-10.2-31.8-28.2-31.8c-17.5,0-30.5,13.3-30.5,32.5v63.5c0,19.4,13,32.5,30.5,32.5
		C56.1,138.9,66.3,123.3,66.3,104.3z M295.8,12.3c0,0,30.5,0,30.5,0c14.9,0,28.7,8.8,28.7,30.8v64.1c0,22.1-13.8,29.8-28.7,29.8
		h-30.6l0,0c-0.9,0-1.6-0.8-1.7-1.7c0,0,0-121.4,0-121.4C294,13.1,294.8,12.3,295.8,12.3z M324.1,35h-4.9v0c-0.4,0-0.7,0.3-0.8,0.7
		v78.2c0.1,0.3,0.3,0.6,0.6,0.6h5.1c4.3,0,6.4-2.6,6.4-8.3V43.1C330.5,37.6,328.4,35,324.1,35z"/>
</g>
</svg>
